<svg id="Capa_1" data-name="Capa 1" xmlns="http://www.w3.org/2000/svg" viewBox="0 0 1063.24 1060.34"><defs><style>.cls-1{fill:none;}.cls-2{fill:#fff;}</style></defs><path class="cls-1" d="M920.48,534.27c0,7.11,1.78,11.56,6.23,11.56,13.79-.45,37.8-46.7,42.25-58.26,2.22-5.34,6.23-17.79,6.23-27.13,0-6.23-1.78-11.12-6.67-12.9l-2.67-.44C945.83,447.1,920.48,508,920.48,534.27Z" transform="translate(-11.45 -9.66)"/><path class="cls-1" d="M669.66,739.55l-2-.33c-14.81,0-33.59,44.79-33.59,64.22,0,5.59,1.65,8.89,4.94,8.89,9.88-.33,27.67-34.91,31-43.14,1.65-4.28,4.61-13.17,4.61-20.42C674.6,744.16,673.28,740.54,669.66,739.55Z" transform="translate(-11.45 -9.66)"/><path class="cls-1" d="M480.64,748.44c-1-4.28-3-7.57-7.24-7.57h-1.65c-15.81,2.63-33.26,47.42-33.26,71.13,0,8.23,2,14.16,6.92,14.82h1c12.85,0,25.69-32,29.31-42.15-5.27-4-7.24-9.88-7.24-15.48C468.46,759.64,474.38,750.09,480.64,748.44Z" transform="translate(-11.45 -9.66)"/><path class="cls-1" d="M940,748.44c-1-4.28-3-7.57-7.57-7.57h-1.32c-15.8,2.63-32.93,47.42-32.93,71.13,0,8.23,2,14.16,6.92,14.82h1c12.84,0,25.68-32,29-42.15-5.26-4-7.24-9.88-7.24-15.48C927.83,759.64,933.76,750.09,940,748.44Z" transform="translate(-11.45 -9.66)"/><path class="cls-2" d="M398.31,649.65a3.66,3.66,0,0,0-3.63,3.62,2.85,2.85,0,0,0,1,2c3,2.3,3.95,6.58,3.95,12.51,0,10.54-3.62,25.69-9.22,43.14-24.7,79.36-57.63,129.42-63.22,129.42-1.65,0-2.31-4-2.31-11.2,0-28.32,12.18-105.38,18.11-142.26A57.82,57.82,0,0,0,344,676c0-14.49-5.93-29-31.94-29l-7.91.33c-28.32,2.31-61.58,53-68.16,77.72a35.14,35.14,0,0,0-1,8.23c0,4.61,1.31,8.89,5.6,11.53a19.14,19.14,0,0,0,8.56,2c5.27,0,10.54-1.65,14.82-3a3.35,3.35,0,0,0,2.3-3,3.21,3.21,0,0,0-2.63-3.3c-.66,0-1-1-1-2.3,0-11.86,28.32-65.2,43.8-74.1a7.29,7.29,0,0,1,4.28-1.31c1.65,0,3,.66,3,2.63v.66c-6.58,38.86-22.06,108.67-22.06,154.12a114.83,114.83,0,0,0,1.32,19.43c2,13.5,19.76,16.79,30,16.79l4.29-.33c17.78-2,66.19-73.76,85-132.38,4.94-14.82,7.9-29,7.9-40.83C420,663.15,413.78,651,398.31,649.65Z" transform="translate(-11.45 -9.66)"/><path class="cls-2" d="M854.73,678c-2,4.28-5.93,17.12-5.93,22.39,0,4.28,9.55,8.24,16.14,8.24,2.63,0,4.94-.66,5.6-2.31,2.3-4.94,6.91-16.79,8.56-19.76a3.13,3.13,0,0,0,.66-2.3c0-4.94-9.88-10.21-17.46-10.21C858.68,674,855.72,675,854.73,678Z" transform="translate(-11.45 -9.66)"/><path class="cls-2" d="M946.93,678.3c-5.27,2.63-28,18.77-28.65,19.43a3,3,0,0,0-1,2.3c0,2.64,2,5.93,4.28,5.93l.66-.33c3.29-1.32,28-11.52,32.6-13.83,1.32-.66,1.65-2.3,1.65-3.95,0-4.28-3.29-10.21-7.24-10.21Z" transform="translate(-11.45 -9.66)"/><path class="cls-2" d="M1074.7,735.27c0-8.89-7.25-14.16-15.48-14.16a22.27,22.27,0,0,0-12.18,3.95c-8.89,6.26-18.45,17.12-25.36,26-5.6,7.57-11.2,15.47-16.14,23,1-3,11.53-35.24,14.16-41.5L1020,731c0-4.94-10.86-9.55-18.77-9.55-4,0-6.91,1-7.9,3.62-3.42,9.05-9,26.08-14.24,44a31.49,31.49,0,0,1-26.26,14.34h-1a99.72,99.72,0,0,0,4.28-27.66c0-15.48-4.61-30-20.42-33.92a37.26,37.26,0,0,0-8.23-1c-23.07,0-41.65,25.23-49.42,52.32-10.05,21.9-27.92,57-37.84,57.34-2,0-2.64-2-2.64-5.6,0-20.09,23.06-85.62,25.69-92.86l.33-1.32c0-4.94-10.21-9.88-18.11-9.88-3.63,0-6.92,1.32-8.24,4-3.64,9-10.52,27.33-16,46.24-19.88,40.21-35.73,53.67-47.23,57.82a29.35,29.35,0,0,1-7.25,1,25.48,25.48,0,0,1-4.94-.66C752.31,825.83,749,814.3,749,802.78a59.84,59.84,0,0,1,2.64-18.11c6.58-24.7,25.35-47.75,34.57-47.75h1c1.32.33,2,1.31,2,3,0,5.27-6.59,16.46-7.91,18.77A2,2,0,0,0,781,760a3.21,3.21,0,0,0,1.32,3,11.63,11.63,0,0,0,6.26,2c3.29,0,6.26-1.65,8.89-4.61a27.66,27.66,0,0,0,5.93-17.13c0-9.55-4.94-19.1-18.11-21.73a53.82,53.82,0,0,0-7.25-.66c-24,0-41.49,25-49.73,46.43-.66,1.78-1.26,3.57-1.83,5.36-10.31,21.87-28.67,57.57-38.67,57.87-1.64,0-2-3-2-7.57.66-23.71,22.06-80.36,26.34-90.89l.33-1.32c0-5.27-10.21-9.88-17.78-9.88-4,0-6.92,1-8.56,3.62l-2.31,5.93c-4-6.26-10.87-9.22-19.43-9.22h-.33c-23.87,0-43,24.89-51.48,51-19.61,39.29-35.26,52.54-46.65,56.65a29.35,29.35,0,0,1-7.25,1,25.48,25.48,0,0,1-4.94-.66c-9.55-3.29-12.84-14.82-12.84-26.34a59.84,59.84,0,0,1,2.64-18.11c6.58-24.7,25.35-47.75,34.57-47.75h1c1.32.33,2,1.31,2,3,0,5.27-6.59,16.46-7.91,18.77a2,2,0,0,0-.33,1.32,3.21,3.21,0,0,0,1.32,3,11.63,11.63,0,0,0,6.26,2c3.29,0,6.26-1.65,8.89-4.61a27.66,27.66,0,0,0,5.93-17.13c0-9.55-4.94-19.1-18.12-21.73a53.52,53.52,0,0,0-7.24-.66c-24,0-41.49,25-49.73,46.43-.25.68-.47,1.36-.71,2-6,9.31-16.9,14.11-26.94,14.11A99.28,99.28,0,0,0,496.78,756c0-15.48-4.61-30.3-20.42-34.25a37.26,37.26,0,0,0-8.23-1c-30.63,0-53.35,44.46-53.35,78.38,0,21.07,8.56,37.87,29.31,37.87,22.72,0,38.86-26.35,46.1-47.1h2.64a39.45,39.45,0,0,0,22.88-7.54,80.18,80.18,0,0,0-1.81,16.44c0,20.74,10.21,37.21,38.2,38.2h3.62a34.07,34.07,0,0,0,11.85-2c10.55-3.69,24.27-13.95,40.48-41.38-.2,2.2-.3,4.37-.3,6.47,0,17.13,6.59,30.3,22.39,30.63h.66c12.84,0,23.38-12.84,31-26-.33,4-.66,7.25-.66,10.54,0,5.6.66,10.54,2.63,13.83,3.63,6.92,12.19,7.91,20.42,7.91h4c10.57-.45,23.43-20.7,34-40.95,0,.92-.07,1.84-.07,2.75,0,20.74,10.21,37.21,38.2,38.2h3.62a34.15,34.15,0,0,0,11.86-2c10.39-3.64,23.87-13.65,39.77-40.21a116.2,116.2,0,0,0-2.24,19.79c0,5.93,1,11.2,3,14.49,3.62,6.92,12.18,7.91,20.42,7.91h4.28c10.34-.45,23-20.72,33.33-41-.05,1.15-.08,2.29-.08,3.42,0,20.75,8.56,37.55,29.31,37.55,22.72,0,38.86-26.35,46.43-47.1h2.64a39,39,0,0,0,22.78-7.42q-.7,2.58-1.38,5.12c-4.94,17.45-8.23,33.59-8.23,40.5,0,7.58,10.86,9.55,19.1,9.55h2c2-.32,3.62-1,3.62-3.29.33-7.57,3.3-20.75,7.58-35.56a385,385,0,0,1,29-43.8c3.62-4.61,11.85-14.49,14.82-17.13,1-1,2.3-2,3.29-2,.66,0,1.32.66,1.32,2.3,0,3.63-18.44,55.66-19.76,77.72v2.31c0,17.45,9.22,19.42,22.06,19.42h6.26c1.32,0,2.31-1.64,2.31-3.29,0-1.32-.66-3-2-3.29-1-.66-1.32-3-1.32-6.26,0-19.1,15.81-62.9,20.42-85.62Zm-599,49.4c-3.62,10.2-16.46,42.15-29.31,42.15h-1c-4.94-.66-6.92-6.59-6.92-14.82,0-23.71,17.45-68.5,33.26-71.13h1.65c4.28,0,6.25,3.29,7.24,7.57-6.26,1.65-12.18,11.2-12.18,20.75C468.46,774.79,470.43,780.71,475.7,784.67ZM670,769.19c-3.29,8.23-21.08,42.81-31,43.14-3.29,0-4.94-3.3-4.94-8.89,0-19.43,18.78-64.22,33.59-64.22l2,.33c3.62,1,4.94,4.61,4.94,9.22C674.6,756,671.64,764.91,670,769.19Zm265.08,15.48c-3.29,10.2-16.13,42.15-29,42.15h-1c-4.94-.66-6.92-6.59-6.92-14.82,0-23.71,17.13-68.5,32.93-71.13h1.32c4.61,0,6.59,3.29,7.57,7.57-6.25,1.65-12.18,11.2-12.18,20.75C927.83,774.79,929.81,780.71,935.07,784.67Z" transform="translate(-11.45 -9.66)"/><path class="cls-2" d="M491.93,691.63l.15,1.64c.75,2.84,5.23,3.89,9,3.89h.75a1.49,1.49,0,0,0,1.49-1.5c.15-13,16-61.24,21.51-73.94l.15-1.49v-.6c.45.15,1.8.45,8.07,1.65,7,1.49,13.29,2.83,18.07,2.83a13.09,13.09,0,0,0,5.83-1c1.79-.9,3.44-3.44,4.18-6.28a11.56,11.56,0,0,0,.45-3.28,10.63,10.63,0,0,0-.9-4.33,1.51,1.51,0,0,0-1.34-1,1.36,1.36,0,0,0-1,.45c-1.34,1.49-4.18,2.09-7.91,2.09-6.28,0-15.09-1.64-24.35-3.29-9.71-1.79-19.87-3.58-28.23-3.73h-2.69c-6.72,0-14,.75-17.93,6-.59.75-1.34,4.78-1.34,8.22,0,2.39.45,4.63,1.49,5.38a2,2,0,0,0,1.2.45,1.41,1.41,0,0,0,1.34-1.2c.75-2.69,4.48-4.33,10.16-5.08a51.27,51.27,0,0,1,8.66-.6c4.34,0,9.12.45,14.05.9a1.28,1.28,0,0,0-.45.75C508.06,627.85,491.93,679.38,491.93,691.63Z" transform="translate(-11.45 -9.66)"/><path class="cls-2" d="M565.42,641.74c0-2.39-4.78-4.48-8.36-4.48-1.65,0-3.14.45-3.59,1.64a164.17,164.17,0,0,0-6,16.43c-4,10.91-7.47,18.23-10.61,23.31-3.88,6.12-6.57,8.21-8.36,8.36-.75,0-.9-1.49-.9-3.43.3-10.76,10-36.45,12-41.23l.15-.75c0-2.24-4.63-4.33-8.22-4.33-1.64,0-3.13.45-3.73,1.64a190.37,190.37,0,0,0-9.86,30,56.88,56.88,0,0,0-1.49,11.35,12.14,12.14,0,0,0,1.19,6.12c1.65,3.14,5.53,3.59,9.26,3.59h2c5.37-.3,11.35-10.76,13.74-15.54a37.34,37.34,0,0,0-.45,5.53,14.82,14.82,0,0,0,1.2,6.42c1.94,3.44,6.57,3.59,10.75,3.59.6,0,.9-.75.9-1.5s-.3-1.49-.75-1.49c-.75-.15-.9-1.49-.9-3.43.3-10.76,10-36.45,11.95-41.23Z" transform="translate(-11.45 -9.66)"/><path class="cls-2" d="M198.06,635.69c59.84-2.82,105-13.86,179.58-10.81,16.35.67,42.39,2.35,55.79,21,10.9,15.15,8.49,34.6,6.43,44.56,2.52-4.27,18.05-31.6,6.67-58.62-8.7-20.65-28.06-29.14-41.23-34.92-25.91-11.37-48.62-10.25-93-7.55-35.66,2.17-60.43,6.87-96.18,8.73-30,1.55-50.91.75-60.26.51-68.4-1.73-92.59-19.81-101.95-29.94-.14-.15-1.66-1.84-3.54-4.25-3.8-4.87-6.69-8.63-8.19-14a27.56,27.56,0,0,1-.94-5.9c3.56-32.91,55.15-65.37,85.39-71.6A4.82,4.82,0,0,0,130.2,468c-.89-8.45-3.56-13.79-7.12-17.79-5.34-6.22-13.34-9.34-19.57-15.12a23.22,23.22,0,0,1-7.11-16.9c0-14.68,12-30.69,22.23-41.36,8.9-9.34,32.47-25.79,50.26-25.79A18.92,18.92,0,0,1,184,358.15a10.76,10.76,0,0,1,1.78,6.67c0,16-21.79,44.48-35.58,44.48h-3.56a4.78,4.78,0,0,0-4.45,4.44c0,13.79,8.9,30.25,23.13,30.25l5.34-.89c27.13-7.12,44-36.47,44-64.49a58.51,58.51,0,0,0-8.45-31.13c-11.12-17.35-30.69-25.35-52.48-25.35-18.24,0-38.25,5.78-54.7,15.56-25.35,14.68-44,44.48-44,69.38,0,18.24,9.78,34.25,33.35,40.92-27.13,9.34-48.47,27.13-63.59,51.14-8.9,13.79-13.35,28-13.35,41.36,0,15.15,6.25,26.3,10.29,33.72a112.47,112.47,0,0,0,28.64,32.38C95.91,640.5,198.06,635.69,198.06,635.69Z" transform="translate(-11.45 -9.66)"/><path class="cls-2" d="M961,422.64c-32.15,0-57.87,33.66-69.43,69-26,58.81-35.12,77.39-47.09,78.24q-2.67,0-2.67-8c0-25.8,21.34-85.39,27.57-116.08l.45-5.33c0-12-9.34-18.68-20.46-18.68-19.13,0-36.47,22.68-50.7,40-8,10.23-15.57,21.35-21.79,31.14,16.45-50.26,36.91-105.41,42.25-118.3l.44-1.78c0-7.12-15.12-13.34-26.24-13.34-5.78,0-10.23,1.33-11.56,4.89C774.93,381,754.18,438.09,739.07,488c-27.2,55.45-48.85,73.93-64.52,79.59a39.64,39.64,0,0,1-9.79,1.33,34,34,0,0,1-6.67-.89c-12.89-4.44-17.34-20-17.34-35.57A80.78,80.78,0,0,1,644.31,508c8.89-33.36,34.24-64.49,46.69-64.49h1.34c1.78.45,2.66,1.78,2.66,4,0,7.12-8.89,22.24-10.67,25.35a2.71,2.71,0,0,0-.44,1.78c0,1.78.44,3.11,1.78,4a15.69,15.69,0,0,0,8.45,2.67c4.44,0,8.45-2.22,12-6.22,4.9-5.78,8-14.68,8-23.13,0-12.9-6.67-25.79-24.46-29.35a71.82,71.82,0,0,0-9.79-.89c-32.46,0-56,33.8-67.15,62.71q-1.89,5-3.38,10.12c-7.61,16.11-18.05,37-28.2,52.58-8.45,12.9-16.45,22.24-22.23,22.68-2.67,0-3.12-4-3.12-10.23.89-32,29.8-108.51,35.58-122.74l.45-1.78c0-7.12-13.79-13.34-24.46-13.34-5.34,0-9.79,1.78-11.12,5.34-4.45,9.78-11.56,28.46-17.79,48.47-12,32.47-22.24,54.7-31.58,69.38-11.56,18.68-20,24.9-24.9,24.9-2.22,0-2.67-4-2.67-10.23.89-32,29.8-108.51,35.58-122.74l.44-1.78c0-6.67-13.78-13.34-24.46-13.34-5.33,0-9.34,1.78-11.11,5.34-4.84,10.32-14.59,36.31-22.13,61.69-27,54.88-48.55,73.2-64.15,78.84a39.64,39.64,0,0,1-9.79,1.33,34,34,0,0,1-6.67-.89c-12.89-4.44-17.34-20-17.34-35.57A80.78,80.78,0,0,1,363.24,508c8.89-33.36,34.24-64.49,46.69-64.49h1.34c1.78.45,2.66,1.78,2.66,4,0,7.12-8.89,22.24-10.67,25.35a2.71,2.71,0,0,0-.44,1.78c0,1.78.44,3.11,1.78,4a15.69,15.69,0,0,0,8.45,2.67c4.44,0,8.44-2.22,12-6.22,4.89-5.78,8-14.68,8-23.13,0-12.9-6.67-25.79-24.46-29.35a72,72,0,0,0-9.79-.89c-32.46,0-56,33.8-67.15,62.71-.69,1.85-1.35,3.7-2,5.56a401.2,401.2,0,0,1-22.05,39.8,267.73,267.73,0,0,1-22.24,28.91c4-6.23,6.67-14.24,8.9-24.46a67.91,67.91,0,0,0,1.33-13.35c0-19.12-6.22-37.8-6.22-56.48a62.21,62.21,0,0,1,10.67-35.58,4.22,4.22,0,0,0,.89-3.11c0-2.22-1.78-4-4.45-4H263.62c-8.45,0-31.58,54.26-35.13,62.26a7.47,7.47,0,0,0-.45,3.11c0,2.23,1.34,2.67,2.23,3.12a4,4,0,0,0,2.22.44,5.32,5.32,0,0,0,4-2.22l16-34.69a66.39,66.39,0,0,0-.44,9.34c0,19.57,5.33,44.47,5.33,65.82,0,12.45-1.77,23.57-8,31.57-2.22,2.67-5.34,4.9-8,4.9a3.25,3.25,0,0,1-2.66-.89c-1.78-1.34-2.67-3.56-2.67-7.12,0-9.34,6.22-24.9,13.34-30.69a3.85,3.85,0,0,0,1.78-3.11c0-6.22-12.9-15.56-23.13-15.56a11.18,11.18,0,0,0-9.34,4.44c-6.67,9.34-10.23,20-10.23,30.24,0,19.13,12.46,36,38.7,36h4c13.34,0,28.91-.89,42.25-15.57a223.82,223.82,0,0,0,20.9-27.57c3.1-4.73,6.14-9.71,9.13-14.86-.14,2.15-.24,4.29-.24,6.41,0,28,13.79,50.25,51.59,51.59h4.89a46.21,46.21,0,0,0,16-2.67c14-4.9,32.14-18.36,53.53-54-2,10.08-3.27,19.87-3.27,27.75,0,7.56.89,13.79,3.55,18.23,4.9,9.34,16.46,10.68,27.58,10.68h5.78c10.23-.45,21.35-13.34,30.68-28.46a120.61,120.61,0,0,0,10.23-17.79,122.88,122.88,0,0,0-1.33,17.34c0,7.56.89,13.79,3.56,18.23,4.89,9.34,16.45,10.68,27.57,10.68h5.78c8.45-.45,18.24-10.68,28-24.91a319.19,319.19,0,0,0,17-29.29c0,.87-.07,1.75-.07,2.61,0,28,13.79,50.25,51.59,51.59h4.89a46.18,46.18,0,0,0,16-2.67c13.68-4.79,31.29-17.74,52-51.54-4.1,16.21-6.68,29.66-6.68,37.75,1.34,13.79,10.23,16.46,24.91,16.46,5.34,0,8.9,0,8.9-4.45,0-9.34,4.44-26.68,10.22-47.14,8-14.23,35.14-60,59.6-82.72,1.33-1.33,3.11-3.11,4.44-3.11s1.78.89,1.78,3.11c0,4.89-25.79,76.05-26.68,109,0,21.79,11.56,25.79,27.13,25.79l12.45-.44c13.18-.7,22-12.49,40.08-51.22,0,.77-.05,1.54-.05,2.3,0,23.12,8.89,40.91,30.24,41.36h.44c17.79,0,31.58-17.35,42.25-35.14-.44,5.34-.89,9.79-.89,14.24,0,7.56.89,14.23,3.56,18.67,5.34,9.79,17.79,10.68,29.8,10.68,1.33,0,2.67-1.78,2.67-3.56v-1.78a6.64,6.64,0,0,0-1.34-4.45c-1.33-.89-1.33-3.55-1.33-7.11a129.5,129.5,0,0,1,1.33-16.46c6.23-36.46,28.91-96.06,33.8-108.51l.45-2.22c0-6.68-13.79-12.9-24-12.9-4.89,0-9.34,1.33-11.12,4.45l-3.11,8c-5.34-8.45-15.12-12-26.24-12.45Zm7.56,24.9c4.89,1.78,6.67,6.67,6.67,12.9,0,9.34-4,21.79-6.23,27.13-4.45,11.56-28.46,57.81-42.25,58.26-4.45,0-6.23-4.45-6.23-11.56,0-26.24,25.35-87.17,45.37-87.17Z" transform="translate(-11.45 -9.66)"/><path class="cls-2" d="M970.32,748.45a90.37,90.37,0,0,1,6.31-23.52c3.81-9.07,6.66-15.56,13.58-19.89a27.69,27.69,0,0,1,14.59-4,350.88,350.88,0,0,0,9.66-111.91,29.18,29.18,0,0,1-12.61,10.67,30,30,0,0,1-21.83.48,333,333,0,0,1-17.94,119.8,80.61,80.61,0,0,1,8.24,28.37Z" transform="translate(-11.45 -9.66)"/><path class="cls-2" d="M955.77,818.53c-1.3,2.27-2.76,4.77-4.37,7.48A61.76,61.76,0,0,0,955.77,818.53Z" transform="translate(-11.45 -9.66)"/><path class="cls-2" d="M932.19,844.2a62.23,62.23,0,0,1-35.11,8.73c-80.26,110.07-210.17,181.6-356.83,181.6C317.13,1034.53,132.71,869,103.05,654A168.54,168.54,0,0,1,66,643.07C91,883,293.75,1070,540.25,1070c68.22,0,137.19-20,142-21.48C838,998.21,921.49,876.25,951.4,826A61.74,61.74,0,0,1,932.19,844.2Z" transform="translate(-11.45 -9.66)"/><path class="cls-2" d="M936.69,398.86a121.61,121.61,0,0,1,39-.4c-64.15-143.29-197-249.13-356.56-275.7v36C759,184,875.94,275.13,936.69,398.86Z" transform="translate(-11.45 -9.66)"/><path class="cls-2" d="M462.72,158.55v-36A476.43,476.43,0,0,0,169.17,293.66,169.41,169.41,0,0,1,205,306,440.92,440.92,0,0,1,462.72,158.55Z" transform="translate(-11.45 -9.66)"/><path class="cls-2" d="M961.22,674.09c1.9-9.43,3.55-19.63,4.8-30.52a365.48,365.48,0,0,0,2.32-45.89l-10.69-3.1c-.11,5.31-.32,12.24-.77,20.36-.35,6.38-.81,14.53-1.94,25-.76,7.1-1.91,16.11-3.73,26.55A30.42,30.42,0,0,1,961.22,674.09Z" transform="translate(-11.45 -9.66)"/><path class="cls-2" d="M217.52,312.53q6,3.48,11.74,7.43A415.51,415.51,0,0,1,462.72,186.44V171.52A427.3,427.3,0,0,0,217.52,312.53Z" transform="translate(-11.45 -9.66)"/><path class="cls-2" d="M912,405.85a121.31,121.31,0,0,1,12.48-4.25C865.48,283.2,753.26,196,619.13,171.34v14.94C747.14,210.49,854.42,293.34,912,405.85Z" transform="translate(-11.45 -9.66)"/><path class="cls-2" d="M129.84,656.51q-5.79-.07-11.5-.54c30.86,205.92,208.49,363.83,423,363.83,140.69,0,265.5-67.94,343.46-172.79-2.94-1.64-5.76-3.41-8.48-5.28-75.74,102.7-197.57,169.34-335,169.34C332.46,1011.07,159.55,857.13,129.84,656.51Z" transform="translate(-11.45 -9.66)"/><g id="Micrófono"><path class="cls-2" d="M609.39,138.4a.44.44,0,0,0,0-.1,5.58,5.58,0,0,0-.38-.93.76.76,0,0,0-.09-.18c-.16-.24-.36-.48-.54-.7l-.07-.09-.08-.07c-.23-.2-.48-.39-.72-.56l-.17-.11-.47-.2c-.15-.06-.32-.15-.49-.2l-.09,0c-.3-.06-.63-.1-.94-.13h-.27l-.88.12-.09,0-.1,0-.79.34-.06,0a3.92,3.92,0,0,0-.79.6l-.06.06-.14.18h0a4.89,4.89,0,0,0-.72.91,1.74,1.74,0,0,0-.1.19c-.11.26-.23.53-.33.79l0,.11a.29.29,0,0,0,0,.09c-.06.29-.09.6-.12.89a1.48,1.48,0,0,0,0,.21,8.66,8.66,0,0,0,.12.89.36.36,0,0,0,0,.11.29.29,0,0,0,0,.09c.1.27.22.55.34.81l.09.17.06.09c.17.23.35.46.53.68l.14.13a8.45,8.45,0,0,0,.69.53l.1.07a.56.56,0,0,0,.17.09l.1.05v45.16a61.88,61.88,0,0,1-61.81,61.82h-.89a61.88,61.88,0,0,1-61.81-61.82V143.94a3.3,3.3,0,0,0,.74-.4,5.78,5.78,0,0,0,.86-.69,4.35,4.35,0,0,0,.33-.42,5.3,5.3,0,0,0,.34-.45l.09-.15a8.36,8.36,0,0,0,.36-.87,4.68,4.68,0,0,0,.19-1.15,1.82,1.82,0,0,0,0-.33,5.82,5.82,0,0,0-.18-1.16c-.06-.18-.14-.35-.21-.52s-.14-.36-.23-.53a5,5,0,0,0-.43-.6,3.64,3.64,0,0,0-.48-.56c-.23-.2-.49-.39-.74-.58l-.17-.11-.15-.07c-.28-.13-.58-.27-.87-.37l-.16,0a7,7,0,0,0-1-.14,5.24,5.24,0,0,0-1.14.12,1.89,1.89,0,0,0-.34.09,4.54,4.54,0,0,0-1.92,1.17c-.09.11-.17.24-.26.35a3.31,3.31,0,0,0-.69.93,4.71,4.71,0,0,0-.55,2.12,1,1,0,0,0,0,.17c0,.31.07.63.13.94a1.89,1.89,0,0,0,.09.34,6.59,6.59,0,0,0,.43,1,5.83,5.83,0,0,0,.67.88,2.28,2.28,0,0,0,.22.22,5.19,5.19,0,0,0,.9.65h0v44.78A66,66,0,0,0,532.62,254v79.35h16.61V254a66,66,0,0,0,58.1-65.48V143.33l.15-.1a6,6,0,0,0,.77-.61,7.77,7.77,0,0,0,.61-.78l.09-.17c.13-.27.24-.55.35-.83a.36.36,0,0,0,0-.11,1.21,1.21,0,0,0,0-.18c.05-.3.09-.62.12-.91a.49.49,0,0,0,0-.12,1.2,1.2,0,0,0,0-.19C609.49,139,609.45,138.7,609.39,138.4ZM545.08,329.23h-8.3v-74.7h8.3Z" transform="translate(-11.45 -9.66)"/><path class="cls-2" d="M491.12,77.69a49.43,49.43,0,0,1,49.36-49.36h.89a49.42,49.42,0,0,1,49.36,49.36v50.76a1.88,1.88,0,0,0-1.12.11,141.12,141.12,0,0,1-98.49,4.25Z" transform="translate(-11.45 -9.66)"/><path class="cls-2" d="M491.12,137.15a143.31,143.31,0,0,0,43.45,6.7,144.43,144.43,0,0,0,56.16-11.28v8.33a1.88,1.88,0,0,0-1.12.11,141.12,141.12,0,0,1-98.49,4.25Z" transform="translate(-11.45 -9.66)"/><path class="cls-2" d="M491.12,149.6a143.31,143.31,0,0,0,43.45,6.7A144.25,144.25,0,0,0,590.73,145v43.54a49.42,49.42,0,0,1-49.36,49.37h-.89a49.43,49.43,0,0,1-49.36-49.37Z" transform="translate(-11.45 -9.66)"/><path class="cls-2" d="M541.37,13.81a61.88,61.88,0,0,1,61.81,61.81V92.53L599,90.59v37.35l14.53-6.81V97.4l-6.23-2.92V75.62a66,66,0,0,0-66-66" transform="translate(-11.45 -9.66)"/><path class="cls-2" d="M540.48,9.66a66,66,0,0,0-66,66V94.48l-6.23,2.92v23.73l14.53,6.81V90.59l-4.15,1.94V75.62a61.88,61.88,0,0,1,61.81-61.81" transform="translate(-11.45 -9.66)"/></g></svg>