<svg id="Capa_2" data-name="Capa 2" xmlns="http://www.w3.org/2000/svg" viewBox="0 0 2085 1251"><defs><style>.cls-1{fill:#5b5b5b;stroke:#000;stroke-miterlimit:10;}.cls-2{fill:#fff;}</style></defs><rect class="cls-1" x="0.5" y="0.5" width="2084" height="1250"/><path class="cls-2" d="M1011.5,672h8.57A149.23,149.23,0,0,0,1169.3,522.79V478.92h-58.49V450.27h58.49v-30h-58.49V391.6h58.49v-30h-58.49V332.93h58.49v-7.87a149.22,149.22,0,0,0-149.23-149.22h-8.57A149.22,149.22,0,0,0,862.27,325.06v7.87h58.21v28.65H862.27v30h58.21v28.65H862.27v30h58.21v28.65H862.27v43.87A149.23,149.23,0,0,0,1011.5,672Z" transform="translate(0.5 0.5)"/><path class="cls-2" d="M1033.24,725.91c15.79-1.86,78.83-11.13,128.59-66.41,52.31-58.1,52.81-125.8,52.56-140.85h-32.67c0,96.72-74.44,175.41-165.94,175.41S849.84,615.37,849.84,518.65H817.18c0,108.57,79.78,198,181.14,207.26V866.56H1035Q1034.12,796.24,1033.24,725.91Z" transform="translate(0.5 0.5)"/><rect class="cls-2" x="1020.22" y="173.29" width="43.56" height="690.72" transform="translate(672.43 -584.4) rotate(45)"/><path class="cls-2" d="M342.18,1016.51H321.63l-3.91,11.72H305.26l21.17-56.88h10.86l21.29,56.88H346.12ZM324.79,1007H339l-7.15-21.29Z" transform="translate(0.5 0.5)"/><path class="cls-2" d="M388,1023.93q-4.19,5.08-11.57,5.08-6.8,0-10.37-3.91t-3.65-11.44V986h11.29v27.34q0,6.6,6,6.61,5.75,0,7.89-4V986H399v42.27H388.35Zm-5-55.7h12.3l-10.82,12.11H375.3Z" transform="translate(0.5 0.5)"/><path class="cls-2" d="M417.88,986l.35,4.88a14.77,14.77,0,0,1,12.15-5.66q6.72,0,10,3.94t3.36,11.8v27.31H432.45v-27q0-3.6-1.56-5.22t-5.2-1.62a7.76,7.76,0,0,0-7.15,4.06v29.81H407.25V986Z" transform="translate(0.5 0.5)"/><path class="cls-2" d="M491.67,1029q-9.3,0-15.14-5.71t-5.84-15.19V1007a25.55,25.55,0,0,1,2.46-11.39,18.15,18.15,0,0,1,7-7.74,19.58,19.58,0,0,1,10.3-2.71q8.67,0,13.65,5.47t5,15.51v4.61H482.14a10.45,10.45,0,0,0,3.3,6.64,10,10,0,0,0,7,2.5,12.2,12.2,0,0,0,10.2-4.73l5.54,6.21a16.89,16.89,0,0,1-6.87,5.61A22.59,22.59,0,0,1,491.67,1029Zm-1.29-34.73a7,7,0,0,0-5.45,2.28,11.79,11.79,0,0,0-2.68,6.51H498v-.9a8.46,8.46,0,0,0-2-5.83A7.32,7.32,0,0,0,490.38,994.28Z" transform="translate(0.5 0.5)"/><path class="cls-2" d="M538.35,1016.55a3.64,3.64,0,0,0-2.05-3.26,23,23,0,0,0-6.59-2.13q-15.08-3.17-15.07-12.82A11.6,11.6,0,0,1,519.3,989q4.68-3.76,12.21-3.77,8.06,0,12.87,3.79a11.94,11.94,0,0,1,4.83,9.84H537.92a5.46,5.46,0,0,0-1.56-4c-1.05-1.06-2.67-1.58-4.89-1.58a6.74,6.74,0,0,0-4.41,1.29,4.07,4.07,0,0,0-1.56,3.28,3.46,3.46,0,0,0,1.77,3,18.31,18.31,0,0,0,6,2,49.65,49.65,0,0,1,7.11,1.89q8.94,3.28,8.94,11.37a11,11,0,0,1-5,9.35q-5,3.58-12.81,3.58a22.21,22.21,0,0,1-9.43-1.9,15.78,15.78,0,0,1-6.47-5.19,12.09,12.09,0,0,1-2.34-7.13H524a5.93,5.93,0,0,0,2.23,4.61,8.82,8.82,0,0,0,5.55,1.6,8.18,8.18,0,0,0,4.9-1.23A3.84,3.84,0,0,0,538.35,1016.55Z" transform="translate(0.5 0.5)"/><path class="cls-2" d="M570.11,975.57V986h7.22v8.28h-7.22v21.1a5,5,0,0,0,.89,3.36c.6.67,1.75,1,3.44,1a18.2,18.2,0,0,0,3.32-.27V1028a23.11,23.11,0,0,1-6.83,1q-11.88,0-12.11-12V994.24h-6.18V986h6.18V975.57Z" transform="translate(0.5 0.5)"/><path class="cls-2" d="M608.11,1028.23a12.49,12.49,0,0,1-1.13-3.79,13.67,13.67,0,0,1-10.66,4.57,15,15,0,0,1-10.3-3.6,11.54,11.54,0,0,1-4.08-9.06q0-6.72,5-10.31t14.4-3.63h5.19V1000a7,7,0,0,0-1.5-4.68,5.91,5.91,0,0,0-4.75-1.76,6.73,6.73,0,0,0-4.47,1.37,4.64,4.64,0,0,0-1.62,3.75H582.88a11.33,11.33,0,0,1,2.26-6.8,15,15,0,0,1,6.41-4.9,23.26,23.26,0,0,1,9.3-1.78q7.81,0,12.4,3.93t4.59,11v18.32c0,4,.59,7,1.68,9.1v.67Zm-9.33-7.85a9.79,9.79,0,0,0,4.61-1.12,7.34,7.34,0,0,0,3.12-3V1009h-4.22q-8.47,0-9,5.86l0,.66a4.51,4.51,0,0,0,1.48,3.48A5.79,5.79,0,0,0,598.78,1020.38Z" transform="translate(0.5 0.5)"/><path class="cls-2" d="M637.1,986l.35,4.73a14.85,14.85,0,0,1,12.15-5.51q8.16,0,11.21,6.44a14.52,14.52,0,0,1,12.69-6.44q6.88,0,10.24,4t3.36,12.05v27H675.77v-27q0-3.59-1.41-5.25c-.93-1.11-2.59-1.66-5-1.66a7,7,0,0,0-7,4.84l0,29H651.12v-26.92c0-2.44-.48-4.22-1.44-5.31s-2.61-1.64-4.93-1.64a7.32,7.32,0,0,0-7,4v29.89H626.51V986Z" transform="translate(0.5 0.5)"/><path class="cls-2" d="M694,1006.7a25.13,25.13,0,0,1,2.42-11.21,17.69,17.69,0,0,1,7-7.61,20.28,20.28,0,0,1,10.56-2.7q8.56,0,14,5.23t6,14.22l.08,2.89q0,9.74-5.43,15.61T714.05,1029q-9.13,0-14.59-5.86T694,1007.21Zm11.29.8q0,6,2.27,9.22a8.14,8.14,0,0,0,12.89,0q2.29-3.15,2.3-10.08c0-3.93-.77-7-2.3-9.15a7.49,7.49,0,0,0-6.49-3.25,7.36,7.36,0,0,0-6.4,3.23Q705.3,1000.73,705.3,1007.5Z" transform="translate(0.5 0.5)"/><path class="cls-2" d="M763.89,1016.55a3.62,3.62,0,0,0-2-3.26,22.86,22.86,0,0,0-6.58-2.13q-15.07-3.17-15.08-12.82a11.61,11.61,0,0,1,4.67-9.39q4.67-3.76,12.21-3.77,8,0,12.87,3.79a11.93,11.93,0,0,1,4.82,9.84H763.46a5.46,5.46,0,0,0-1.56-4c-1-1.06-2.67-1.58-4.88-1.58a6.74,6.74,0,0,0-4.41,1.29A4,4,0,0,0,751,997.8a3.45,3.45,0,0,0,1.78,3,18.14,18.14,0,0,0,6,2,49.65,49.65,0,0,1,7.11,1.89q8.94,3.28,8.94,11.37a11,11,0,0,1-5,9.35q-5,3.58-12.81,3.58a22.29,22.29,0,0,1-9.44-1.9,15.81,15.81,0,0,1-6.46-5.19,12.09,12.09,0,0,1-2.34-7.13h10.7a5.87,5.87,0,0,0,2.23,4.61,8.79,8.79,0,0,0,5.54,1.6,8.16,8.16,0,0,0,4.9-1.23A3.81,3.81,0,0,0,763.89,1016.55Z" transform="translate(0.5 0.5)"/><path class="cls-2" d="M815.57,975.57V986h7.23v8.28h-7.23v21.1a5,5,0,0,0,.9,3.36c.6.67,1.75,1,3.44,1a18.2,18.2,0,0,0,3.32-.27V1028a23.13,23.13,0,0,1-6.84,1q-11.86,0-12.1-12V994.24h-6.18V986h6.18V975.57Z" transform="translate(0.5 0.5)"/><path class="cls-2" d="M852.84,996.55a30.55,30.55,0,0,0-4.06-.32q-6.4,0-8.4,4.34v27.66H829.09V986h10.66l.32,5q3.39-5.82,9.41-5.82a11.84,11.84,0,0,1,3.52.51Z" transform="translate(0.5 0.5)"/><path class="cls-2" d="M881.59,1028.23a12.49,12.49,0,0,1-1.13-3.79,13.7,13.7,0,0,1-10.67,4.57,15,15,0,0,1-10.29-3.6,11.54,11.54,0,0,1-4.08-9.06q0-6.72,5-10.31t14.39-3.63H880V1000a6.91,6.91,0,0,0-1.51-4.68c-1-1.18-2.58-1.76-4.74-1.76a6.73,6.73,0,0,0-4.47,1.37,4.62,4.62,0,0,0-1.63,3.75H856.36a11.33,11.33,0,0,1,2.26-6.8A15,15,0,0,1,865,987a23.25,23.25,0,0,1,9.29-1.78q7.81,0,12.41,3.93t4.59,11v18.32c0,4,.58,7,1.68,9.1v.67Zm-9.34-7.85a9.73,9.73,0,0,0,4.61-1.12,7.31,7.31,0,0,0,3.13-3V1009h-4.22q-8.47,0-9,5.86l0,.66a4.51,4.51,0,0,0,1.48,3.48A5.78,5.78,0,0,0,872.25,1020.38Z" transform="translate(0.5 0.5)"/><path class="cls-2" d="M938.07,1007.48q0,10.17-4.33,15.84T921.63,1029a13.2,13.2,0,0,1-11-5.28l-.51,4.5H900v-60h11.29v21.52a12.84,12.84,0,0,1,10.27-4.57,14.47,14.47,0,0,1,12.13,5.68q4.4,5.68,4.39,16Zm-11.28-.82c0-4.27-.68-7.38-2-9.35a6.85,6.85,0,0,0-6-2.95c-3.59,0-6.07,1.47-7.42,4.41v16.68q2.07,4.45,7.5,4.46t7.18-5.39A27.67,27.67,0,0,0,926.79,1006.66Z" transform="translate(0.5 0.5)"/><path class="cls-2" d="M969.52,1028.23a12.49,12.49,0,0,1-1.13-3.79,13.7,13.7,0,0,1-10.67,4.57,15,15,0,0,1-10.29-3.6,11.54,11.54,0,0,1-4.08-9.06q0-6.72,5-10.31t14.39-3.63h5.2V1000a6.91,6.91,0,0,0-1.51-4.68c-1-1.18-2.58-1.76-4.74-1.76a6.73,6.73,0,0,0-4.47,1.37,4.62,4.62,0,0,0-1.63,3.75H944.29a11.33,11.33,0,0,1,2.26-6.8A15,15,0,0,1,953,987a23.25,23.25,0,0,1,9.29-1.78q7.82,0,12.41,3.93t4.59,11v18.32c0,4,.58,7,1.68,9.1v.67Zm-9.34-7.85a9.73,9.73,0,0,0,4.61-1.12,7.31,7.31,0,0,0,3.13-3V1009H963.7q-8.48,0-9,5.86l0,.66a4.51,4.51,0,0,0,1.48,3.48A5.77,5.77,0,0,0,960.18,1020.38Z" transform="translate(0.5 0.5)"/><path class="cls-2" d="M999.87,986v44.57q0,7-3.71,10.88t-10.7,3.89a22.59,22.59,0,0,1-5.59-.67v-8.94a21.72,21.72,0,0,0,3.56.35q5.12,0,5.11-5.43V986ZM987.64,975a5.58,5.58,0,0,1,1.7-4.18,7.36,7.36,0,0,1,9.26,0,6,6,0,0,1,0,8.4,7.24,7.24,0,0,1-9.18,0A5.53,5.53,0,0,1,987.64,975Z" transform="translate(0.5 0.5)"/><path class="cls-2" d="M1033.19,1028.23a12.49,12.49,0,0,1-1.13-3.79,13.7,13.7,0,0,1-10.67,4.57,15,15,0,0,1-10.29-3.6,11.54,11.54,0,0,1-4.08-9.06q0-6.72,5-10.31t14.39-3.63h5.2V1000a7,7,0,0,0-1.5-4.68,5.91,5.91,0,0,0-4.75-1.76,6.73,6.73,0,0,0-4.47,1.37,4.64,4.64,0,0,0-1.62,3.75H1008a11.33,11.33,0,0,1,2.26-6.8,15,15,0,0,1,6.41-4.9,23.26,23.26,0,0,1,9.3-1.78q7.8,0,12.4,3.93t4.59,11v18.32c0,4,.58,7,1.68,9.1v.67Zm-9.33-7.85a9.72,9.72,0,0,0,4.6-1.12,7.31,7.31,0,0,0,3.13-3V1009h-4.22q-8.47,0-9,5.86l0,.66a4.51,4.51,0,0,0,1.48,3.48A5.79,5.79,0,0,0,1023.86,1020.38Z" transform="translate(0.5 0.5)"/><path class="cls-2" d="M1062,986l.35,4.88a14.77,14.77,0,0,1,12.15-5.66q6.72,0,10,3.94t3.36,11.8v27.31h-11.29v-27q0-3.6-1.56-5.22c-1-1.08-2.78-1.62-5.2-1.62a7.77,7.77,0,0,0-7.15,4.06v29.81h-11.28V986Z" transform="translate(0.5 0.5)"/><path class="cls-2" d="M1094.64,1006.78q0-9.88,4.43-15.74a14.38,14.38,0,0,1,12.13-5.86,13,13,0,0,1,10.19,4.61V968.23h11.33v60h-10.19l-.55-4.5a13.27,13.27,0,0,1-10.86,5.28,14.35,14.35,0,0,1-12-5.88Q1094.64,1017.25,1094.64,1006.78Zm11.29.84c0,4,.69,7,2.07,9.12a6.74,6.74,0,0,0,6,3.17,7.56,7.56,0,0,0,7.38-4.42V998.78a7.43,7.43,0,0,0-7.3-4.42Q1105.93,994.36,1105.93,1007.62Z" transform="translate(0.5 0.5)"/><path class="cls-2" d="M1139.71,1006.7a25,25,0,0,1,2.43-11.21,17.67,17.67,0,0,1,7-7.61,20.32,20.32,0,0,1,10.57-2.7q8.55,0,14,5.23t6,14.22l.07,2.89q0,9.74-5.43,15.61t-14.57,5.88q-9.13,0-14.59-5.86t-5.45-15.94Zm11.29.8q0,6,2.27,9.22a8.14,8.14,0,0,0,12.89,0q2.31-3.15,2.3-10.08c0-3.93-.76-7-2.3-9.15a7.49,7.49,0,0,0-6.48-3.25,7.38,7.38,0,0,0-6.41,3.23Q1151,1000.73,1151,1007.5Z" transform="translate(0.5 0.5)"/><path class="cls-2" d="M1226.08,1029q-9.3,0-15.13-5.71t-5.84-15.19V1007a25.55,25.55,0,0,1,2.46-11.39,18.09,18.09,0,0,1,7-7.74,19.57,19.57,0,0,1,10.29-2.71q8.67,0,13.65,5.47t5,15.51v4.61h-26.91a10.55,10.55,0,0,0,3.3,6.64,10,10,0,0,0,7,2.5,12.2,12.2,0,0,0,10.2-4.73l5.55,6.21a17,17,0,0,1-6.88,5.61A22.56,22.56,0,0,1,1226.08,1029Zm-1.29-34.73a7.06,7.06,0,0,0-5.45,2.28,11.78,11.78,0,0,0-2.67,6.51h15.7v-.9a8.41,8.41,0,0,0-2-5.83A7.29,7.29,0,0,0,1224.79,994.28Z" transform="translate(0.5 0.5)"/><path class="cls-2" d="M1260.26,986l.35,4.88a14.77,14.77,0,0,1,12.15-5.66q6.72,0,10,3.94t3.36,11.8v27.31h-11.29v-27q0-3.6-1.56-5.22t-5.2-1.62a7.75,7.75,0,0,0-7.14,4.06v29.81h-11.29V986Z" transform="translate(0.5 0.5)"/><path class="cls-2" d="M1334.05,1029q-9.3,0-15.14-5.71t-5.84-15.19V1007a25.42,25.42,0,0,1,2.47-11.39,18.09,18.09,0,0,1,7-7.74,19.57,19.57,0,0,1,10.29-2.71q8.67,0,13.65,5.47t5,15.51v4.61h-26.91a10.45,10.45,0,0,0,3.3,6.64,10,10,0,0,0,7,2.5,12.2,12.2,0,0,0,10.2-4.73l5.55,6.21a17,17,0,0,1-6.88,5.61A22.56,22.56,0,0,1,1334.05,1029Zm-1.29-34.73a7.06,7.06,0,0,0-5.45,2.28,11.78,11.78,0,0,0-2.67,6.51h15.7v-.9a8.41,8.41,0,0,0-2-5.83A7.29,7.29,0,0,0,1332.76,994.28Z" transform="translate(0.5 0.5)"/><path class="cls-2" d="M1380.73,1016.55a3.62,3.62,0,0,0-2-3.26,23,23,0,0,0-6.58-2.13Q1357,1008,1357,998.34a11.61,11.61,0,0,1,4.67-9.39q4.66-3.76,12.2-3.77,8.05,0,12.88,3.79a12,12,0,0,1,4.82,9.84H1380.3a5.46,5.46,0,0,0-1.56-4c-1-1.06-2.67-1.58-4.88-1.58a6.75,6.75,0,0,0-4.42,1.29,4.07,4.07,0,0,0-1.56,3.28,3.45,3.45,0,0,0,1.78,3,18.15,18.15,0,0,0,6,2,49.65,49.65,0,0,1,7.11,1.89q8.94,3.28,9,11.37a11,11,0,0,1-5,9.35q-5,3.58-12.82,3.58a22.24,22.24,0,0,1-9.43-1.9,15.75,15.75,0,0,1-6.46-5.19,12,12,0,0,1-2.35-7.13h10.7a5.93,5.93,0,0,0,2.23,4.61,8.82,8.82,0,0,0,5.55,1.6,8.18,8.18,0,0,0,4.9-1.23A3.81,3.81,0,0,0,1380.73,1016.55Z" transform="translate(0.5 0.5)"/><path class="cls-2" d="M1412.49,975.57V986h7.22v8.28h-7.22v21.1a5,5,0,0,0,.9,3.36c.6.67,1.74,1,3.43,1a18.2,18.2,0,0,0,3.32-.27V1028a23.11,23.11,0,0,1-6.83,1q-11.88,0-12.11-12V994.24H1395V986h6.17V975.57Z" transform="translate(0.5 0.5)"/><path class="cls-2" d="M1445.46,1029q-9.3,0-15.14-5.71t-5.84-15.19V1007a25.55,25.55,0,0,1,2.46-11.39,18.15,18.15,0,0,1,7-7.74,19.58,19.58,0,0,1,10.3-2.71q8.67,0,13.65,5.47t5,15.51v4.61h-26.91a10.45,10.45,0,0,0,3.3,6.64,10,10,0,0,0,7,2.5,12.17,12.17,0,0,0,10.19-4.73l5.55,6.21a16.89,16.89,0,0,1-6.87,5.61A22.59,22.59,0,0,1,1445.46,1029Zm-1.29-34.73a7,7,0,0,0-5.45,2.28,11.79,11.79,0,0,0-2.68,6.51h15.71v-.9a8.41,8.41,0,0,0-2-5.83A7.28,7.28,0,0,0,1444.17,994.28Z" transform="translate(0.5 0.5)"/><path class="cls-2" d="M1501.63,1008.19v20h-11.72V971.35h22.19a25.59,25.59,0,0,1,11.27,2.35,17.28,17.28,0,0,1,7.48,6.66,18.58,18.58,0,0,1,2.61,9.82q0,8.36-5.72,13.18t-15.84,4.83Zm0-9.49h10.47q4.65,0,7.09-2.19a8,8,0,0,0,2.44-6.25,9.38,9.38,0,0,0-2.46-6.76,9.23,9.23,0,0,0-6.8-2.66h-10.74Z" transform="translate(0.5 0.5)"/><path class="cls-2" d="M1538.5,1006.7a25,25,0,0,1,2.43-11.21,17.61,17.61,0,0,1,7-7.61,20.28,20.28,0,0,1,10.56-2.7q8.57,0,14,5.23t6,14.22l.08,2.89q0,9.74-5.43,15.61t-14.57,5.88q-9.13,0-14.59-5.86t-5.45-15.94Zm11.29.8q0,6,2.27,9.22a8.14,8.14,0,0,0,12.89,0q2.31-3.15,2.3-10.08c0-3.93-.76-7-2.3-9.15a7.49,7.49,0,0,0-6.49-3.25,7.36,7.36,0,0,0-6.4,3.23Q1549.8,1000.73,1549.79,1007.5Z" transform="translate(0.5 0.5)"/><path class="cls-2" d="M1583.74,1006.78q0-9.88,4.43-15.74a14.38,14.38,0,0,1,12.13-5.86,13,13,0,0,1,10.2,4.61V968.23h11.32v60h-10.19l-.55-4.5a13.27,13.27,0,0,1-10.86,5.28,14.35,14.35,0,0,1-12-5.88Q1583.74,1017.25,1583.74,1006.78Zm11.29.84c0,4,.69,7,2.07,9.12a6.74,6.74,0,0,0,6,3.17,7.58,7.58,0,0,0,7.39-4.42V998.78a7.45,7.45,0,0,0-7.31-4.42Q1595,994.36,1595,1007.62Z" transform="translate(0.5 0.5)"/><path class="cls-2" d="M1648.15,1019.91a7.42,7.42,0,0,0,5.08-1.72,6,6,0,0,0,2-4.57h10.59a14.49,14.49,0,0,1-2.35,7.87,15.52,15.52,0,0,1-6.3,5.55,19.82,19.82,0,0,1-8.85,2q-9.06,0-14.3-5.76t-5.23-15.92v-.74q0-9.76,5.19-15.59t14.26-5.82q7.93,0,12.71,4.51t4.87,12h-10.59a7.76,7.76,0,0,0-2-5.36,7.54,7.54,0,0,0-11.11.82q-2,2.87-2,9.33v1.17q0,6.54,2,9.39A6.86,6.86,0,0,0,1648.15,1019.91Z" transform="translate(0.5 0.5)"/><path class="cls-2" d="M1696.79,1028.23a12.48,12.48,0,0,1-1.14-3.79A13.67,13.67,0,0,1,1685,1029a15,15,0,0,1-10.29-3.6,11.52,11.52,0,0,1-4.09-9.06q0-6.72,5-10.31t14.4-3.63h5.19V1000a7,7,0,0,0-1.5-4.68c-1-1.18-2.59-1.76-4.75-1.76a6.73,6.73,0,0,0-4.47,1.37,4.64,4.64,0,0,0-1.62,3.75h-11.29a11.34,11.34,0,0,1,2.27-6.8,14.94,14.94,0,0,1,6.4-4.9,23.26,23.26,0,0,1,9.3-1.78q7.82,0,12.4,3.93t4.59,11v18.32c0,4,.59,7,1.68,9.1v.67Zm-9.34-7.85a9.76,9.76,0,0,0,4.61-1.12,7.29,7.29,0,0,0,3.12-3V1009H1691q-8.48,0-9,5.86l0,.66a4.52,4.52,0,0,0,1.49,3.48A5.77,5.77,0,0,0,1687.45,1020.38Z" transform="translate(0.5 0.5)"/><path class="cls-2" d="M1738.07,1016.55a3.62,3.62,0,0,0-2-3.26,22.86,22.86,0,0,0-6.58-2.13q-15.07-3.17-15.08-12.82A11.61,11.61,0,0,1,1719,989q4.67-3.76,12.21-3.77,8,0,12.87,3.79a11.93,11.93,0,0,1,4.82,9.84h-11.29a5.46,5.46,0,0,0-1.56-4c-1-1.06-2.67-1.58-4.88-1.58a6.74,6.74,0,0,0-4.41,1.29,4,4,0,0,0-1.57,3.28,3.45,3.45,0,0,0,1.78,3,18.14,18.14,0,0,0,6,2,49.65,49.65,0,0,1,7.11,1.89q8.94,3.28,8.94,11.37a11,11,0,0,1-5,9.35q-5,3.58-12.81,3.58a22.29,22.29,0,0,1-9.44-1.9,15.81,15.81,0,0,1-6.46-5.19,12.09,12.09,0,0,1-2.34-7.13h10.7a5.89,5.89,0,0,0,2.22,4.61,8.82,8.82,0,0,0,5.55,1.6,8.16,8.16,0,0,0,4.9-1.23A3.81,3.81,0,0,0,1738.07,1016.55Z" transform="translate(0.5 0.5)"/><path class="cls-2" d="M1769.83,975.57V986h7.23v8.28h-7.23v21.1a5,5,0,0,0,.9,3.36c.6.67,1.74,1,3.44,1a18.27,18.27,0,0,0,3.32-.27V1028a23.18,23.18,0,0,1-6.84,1q-11.87,0-12.11-12V994.24h-6.17V986h6.17V975.57Z" transform="translate(0.5 0.5)"/></svg>