<svg xmlns="http://www.w3.org/2000/svg" xmlns:xlink="http://www.w3.org/1999/xlink" viewBox="0 0 1081 1081"><defs><style>.cls-1{isolation:isolate;}.cls-2{fill:#0f0f0f;stroke:#1d1d1b;stroke-miterlimit:10;}.cls-3{fill:none;}.cls-32,.cls-4,.cls-5{fill:#fff;}.cls-5{font-size:44.79px;font-family:MyriadPro-Regular, Myriad Pro;}.cls-6{letter-spacing:0em;}.cls-7{fill:url(#Degradado_sin_nombre_2);}.cls-8{fill:url(#Degradado_sin_nombre_2-2);}.cls-9{fill:url(#Degradado_sin_nombre_2-3);}.cls-10{fill:url(#Degradado_sin_nombre_2-4);}.cls-11{fill:url(#Degradado_sin_nombre_2-5);}.cls-12{fill:url(#Degradado_sin_nombre_2-6);}.cls-13{fill:url(#Degradado_sin_nombre_2-7);}.cls-14{fill:url(#Degradado_sin_nombre_2-8);}.cls-15{fill:url(#Degradado_sin_nombre_2-9);}.cls-16{fill:url(#Degradado_sin_nombre_2-10);}.cls-17{fill:url(#Degradado_sin_nombre_2-11);}.cls-18{fill:url(#Degradado_sin_nombre_2-12);}.cls-19{fill:url(#Degradado_sin_nombre_2-13);}.cls-20{fill:url(#Degradado_sin_nombre_2-14);}.cls-21{fill:url(#Degradado_sin_nombre_2-15);}.cls-22{fill:url(#Degradado_sin_nombre_2-16);}.cls-23{fill:url(#Degradado_sin_nombre_2-17);}.cls-24{fill:url(#Degradado_sin_nombre_2-18);}.cls-25{fill:url(#Degradado_sin_nombre_2-19);}.cls-26{fill:url(#Degradado_sin_nombre_2-20);}.cls-27{fill:url(#Degradado_sin_nombre_2-21);}.cls-28{fill:url(#Degradado_sin_nombre_2-22);}.cls-29{fill:url(#Degradado_sin_nombre_2-23);}.cls-30{fill:url(#Degradado_sin_nombre_2-24);}.cls-31{fill:url(#Degradado_sin_nombre_2-25);}.cls-32{mix-blend-mode:lighten;}.cls-33{fill:#1d1d1b;}</style><linearGradient id="Degradado_sin_nombre_2" x1="496.19" y1="124.59" x2="583.81" y2="124.59" gradientUnits="userSpaceOnUse"><stop offset="0" stop-color="#fff"/><stop offset="1"/></linearGradient><linearGradient id="Degradado_sin_nombre_2-2" x1="496.19" y1="175.91" x2="583.81" y2="175.91" xlink:href="#Degradado_sin_nombre_2"/><linearGradient id="Degradado_sin_nombre_2-3" x1="496.19" y1="219.11" x2="583.81" y2="219.11" xlink:href="#Degradado_sin_nombre_2"/><linearGradient id="Degradado_sin_nombre_2-4" x1="573.49" y1="157.36" x2="580.22" y2="157.36" xlink:href="#Degradado_sin_nombre_2"/><linearGradient id="Degradado_sin_nombre_2-5" x1="574.04" y1="148.33" x2="579.37" y2="148.33" xlink:href="#Degradado_sin_nombre_2"/><linearGradient id="Degradado_sin_nombre_2-6" x1="573.68" y1="139.17" x2="578.79" y2="139.17" xlink:href="#Degradado_sin_nombre_2"/><linearGradient id="Degradado_sin_nombre_2-7" x1="573.73" y1="130.04" x2="578.75" y2="130.04" xlink:href="#Degradado_sin_nombre_2"/><linearGradient id="Degradado_sin_nombre_2-8" x1="574.15" y1="120.25" x2="578.14" y2="120.25" xlink:href="#Degradado_sin_nombre_2"/><linearGradient id="Degradado_sin_nombre_2-9" x1="573.12" y1="111.33" x2="577.36" y2="111.33" xlink:href="#Degradado_sin_nombre_2"/><linearGradient id="Degradado_sin_nombre_2-10" x1="572.41" y1="105.47" x2="575.87" y2="105.47" xlink:href="#Degradado_sin_nombre_2"/><linearGradient id="Degradado_sin_nombre_2-11" x1="570.43" y1="98.83" x2="573.86" y2="98.83" xlink:href="#Degradado_sin_nombre_2"/><linearGradient id="Degradado_sin_nombre_2-12" x1="568.96" y1="92.4" x2="570.93" y2="92.4" xlink:href="#Degradado_sin_nombre_2"/><linearGradient id="Degradado_sin_nombre_2-13" x1="563.57" y1="157.47" x2="570.26" y2="157.47" xlink:href="#Degradado_sin_nombre_2"/><linearGradient id="Degradado_sin_nombre_2-14" x1="564.02" y1="148.33" x2="568.92" y2="148.33" xlink:href="#Degradado_sin_nombre_2"/><linearGradient id="Degradado_sin_nombre_2-15" x1="564.17" y1="140.43" x2="567.79" y2="140.43" xlink:href="#Degradado_sin_nombre_2"/><linearGradient id="Degradado_sin_nombre_2-16" x1="563.61" y1="132.04" x2="567.89" y2="132.04" xlink:href="#Degradado_sin_nombre_2"/><linearGradient id="Degradado_sin_nombre_2-17" x1="563.38" y1="122.61" x2="567.66" y2="122.61" xlink:href="#Degradado_sin_nombre_2"/><linearGradient id="Degradado_sin_nombre_2-18" x1="562.45" y1="110.69" x2="566.25" y2="110.69" xlink:href="#Degradado_sin_nombre_2"/><linearGradient id="Degradado_sin_nombre_2-19" x1="561.81" y1="101.25" x2="565.06" y2="101.25" xlink:href="#Degradado_sin_nombre_2"/><linearGradient id="Degradado_sin_nombre_2-20" x1="559.48" y1="91.95" x2="564.18" y2="91.95" xlink:href="#Degradado_sin_nombre_2"/><linearGradient id="Degradado_sin_nombre_2-21" x1="556.82" y1="84.5" x2="559.64" y2="84.5" xlink:href="#Degradado_sin_nombre_2"/><linearGradient id="Degradado_sin_nombre_2-22" x1="555.81" y1="246.3" x2="562.95" y2="246.3" xlink:href="#Degradado_sin_nombre_2"/><linearGradient id="Degradado_sin_nombre_2-23" x1="565.9" y1="219.49" x2="580.2" y2="219.49" xlink:href="#Degradado_sin_nombre_2"/><linearGradient id="Degradado_sin_nombre_2-24" x1="575.97" y1="187.7" x2="578.7" y2="187.7" xlink:href="#Degradado_sin_nombre_2"/><linearGradient id="Degradado_sin_nombre_2-25" x1="496.19" y1="221.13" x2="543.94" y2="221.13" xlink:href="#Degradado_sin_nombre_2"/></defs><g class="cls-1"><g id="Capa_2" data-name="Capa 2"><rect class="cls-2" x="0.5" y="0.5" width="1080" height="1080"/></g><g id="Capa_1" data-name="Capa 1"><path class="cls-3" d="M872,520.64c0,6.26,1.56,10.17,5.47,10.17,12.13-.39,33.26-41.08,37.17-51.25,2-4.69,5.47-15.65,5.47-23.86,0-5.48-1.56-9.78-5.86-11.34l-2.35-.4C894.27,444,872,497.56,872,520.64Z" transform="translate(0.5 0.5)"/><path class="cls-3" d="M651.35,701.21l-1.74-.29c-13,0-29.55,39.4-29.55,56.49,0,4.92,1.45,7.82,4.35,7.82,8.69-.29,24.33-30.71,27.23-38,1.44-3.76,4.05-11.59,4.05-18C655.69,705.27,654.53,702.08,651.35,701.21Z" transform="translate(0.5 0.5)"/><path class="cls-3" d="M485.08,709c-.87-3.76-2.61-6.66-6.37-6.66h-1.45c-13.9,2.32-29.26,41.71-29.26,62.57,0,7.24,1.74,12.45,6.09,13H455c11.29,0,22.59-28.09,25.78-37.07a16.54,16.54,0,0,1-6.38-13.62C474.36,718.88,479.58,710.48,485.08,709Z" transform="translate(0.5 0.5)"/><path class="cls-3" d="M889.16,709c-.87-3.76-2.61-6.66-6.67-6.66h-1.16c-13.9,2.32-29,41.71-29,62.57,0,7.24,1.74,12.45,6.08,13h.87c11.3,0,22.59-28.09,25.49-37.07a16.56,16.56,0,0,1-6.37-13.62C878.44,718.88,883.65,710.48,889.16,709Z" transform="translate(0.5 0.5)"/><path class="cls-4" d="M412.66,622.13a3.22,3.22,0,0,0-3.19,3.19,2.47,2.47,0,0,0,.87,1.73c2.61,2,3.48,5.8,3.48,11,0,9.27-3.19,22.6-8.11,38C384,745.82,355,789.85,350.09,789.85c-1.45,0-2-3.48-2-9.85,0-24.91,10.72-92.69,15.93-125.14a50.88,50.88,0,0,0,.87-9.56c0-12.74-5.21-25.49-28.1-25.49l-6.95.29c-24.91,2-54.17,46.64-60,68.37a30.82,30.82,0,0,0-.87,7.24c0,4,1.16,7.82,4.93,10.14a17,17,0,0,0,7.53,1.73c4.63,0,9.27-1.44,13-2.6a3,3,0,0,0,2-2.61,2.82,2.82,0,0,0-2.32-2.9c-.58,0-.87-.87-.87-2,0-10.43,24.92-57.36,38.53-65.18a6.38,6.38,0,0,1,3.77-1.16c1.44,0,2.6.58,2.6,2.32V634c-5.79,34.18-19.41,95.59-19.41,135.56A101,101,0,0,0,320,786.66c1.74,11.88,17.38,14.78,26.36,14.78l3.77-.29c15.64-1.74,58.22-64.89,74.73-116.45,4.35-13,7-25.49,7-35.92C431.78,634,426.27,623.29,412.66,622.13Z" transform="translate(0.5 0.5)"/><path class="cls-4" d="M814.14,647c-1.74,3.77-5.22,15.07-5.22,19.7,0,3.77,8.4,7.24,14.19,7.24,2.32,0,4.35-.58,4.93-2,2-4.34,6.08-14.77,7.53-17.38a2.73,2.73,0,0,0,.58-2c0-4.35-8.69-9-15.35-9C817.61,643.57,815,644.44,814.14,647Z" transform="translate(0.5 0.5)"/><path class="cls-4" d="M895.24,647.33c-4.64,2.32-24.62,16.51-25.2,17.09a2.63,2.63,0,0,0-.87,2c0,2.32,1.74,5.22,3.76,5.22l.58-.29c2.9-1.16,24.63-10.14,28.68-12.17,1.16-.58,1.45-2,1.45-3.48,0-3.76-2.9-9-6.37-9Z" transform="translate(0.5 0.5)"/><path class="cls-4" d="M1007.63,697.45c0-7.83-6.38-12.46-13.62-12.46a19.59,19.59,0,0,0-10.72,3.48c-7.82,5.5-16.22,15.06-22.3,22.88-4.92,6.66-9.85,13.61-14.19,20.28.86-2.61,10.13-31,12.45-36.5l.29-1.45c0-4.34-9.56-8.4-16.51-8.4-3.48,0-6.08.87-6.95,3.19-3,7.95-7.94,22.93-12.53,38.66a27.71,27.71,0,0,1-23.1,12.61h-.87a87.47,87.47,0,0,0,3.77-24.33c0-13.62-4.06-26.37-18-29.84a32.81,32.81,0,0,0-7.24-.87c-20.3,0-36.64,22.19-43.47,46-8.85,19.27-24.56,50.18-33.29,50.44-1.74,0-2.32-1.74-2.32-4.93,0-17.67,20.28-75.31,22.6-81.68l.29-1.16c0-4.35-9-8.69-15.93-8.69-3.19,0-6.09,1.16-7.25,3.48-3.21,7.91-9.25,24-14.06,40.67-17.49,35.37-31.43,47.21-41.55,50.86a25.85,25.85,0,0,1-6.37.87,22.39,22.39,0,0,1-4.35-.58c-8.4-2.9-11.3-13-11.3-23.17a52.64,52.64,0,0,1,2.32-15.93c5.79-21.73,22.3-42,30.42-42h.87c1.15.29,1.73,1.16,1.73,2.61,0,4.64-5.79,14.48-7,16.51a1.74,1.74,0,0,0-.29,1.16,2.83,2.83,0,0,0,1.16,2.61,10.24,10.24,0,0,0,5.5,1.74c2.9,0,5.51-1.45,7.82-4.06A24.3,24.3,0,0,0,769,704.4c0-8.4-4.35-16.8-15.93-19.12a47.42,47.42,0,0,0-6.38-.58c-21.14,0-36.49,22-43.74,40.84-.58,1.57-1.11,3.14-1.61,4.72-9.07,19.23-25.22,50.63-34,50.9-1.45,0-1.74-2.61-1.74-6.66.58-20.86,19.41-70.68,23.17-80l.29-1.16c0-4.64-9-8.69-15.64-8.69-3.48,0-6.08.87-7.53,3.19l-2,5.21c-3.47-5.5-9.56-8.11-17.09-8.11h-.29c-21,0-37.79,21.9-45.28,44.88-17.25,34.57-31,46.22-41,49.84a25.79,25.79,0,0,1-6.37.87,22.39,22.39,0,0,1-4.35-.58c-8.4-2.9-11.29-13-11.29-23.17a53,53,0,0,1,2.31-15.93c5.8-21.73,22.31-42,30.42-42h.87q1.74.43,1.74,2.61c0,4.64-5.8,14.48-7,16.51a1.74,1.74,0,0,0-.29,1.16,2.83,2.83,0,0,0,1.16,2.61,10.25,10.25,0,0,0,5.51,1.74c2.89,0,5.5-1.45,7.82-4.06a24.36,24.36,0,0,0,5.21-15.06c0-8.4-4.34-16.8-15.93-19.12a47.28,47.28,0,0,0-6.37-.58c-21.15,0-36.5,22-43.74,40.84-.22.6-.42,1.19-.63,1.79-5.29,8.19-14.86,12.41-23.7,12.41a87.1,87.1,0,0,0,3.77-24c0-13.61-4.06-26.65-18-30.12a32.89,32.89,0,0,0-7.25-.87c-26.94,0-46.92,39.11-46.92,68.94,0,18.54,7.53,33.31,25.78,33.31,20,0,34.18-23.17,40.55-41.42h2.32a34.7,34.7,0,0,0,20.13-6.64,70.6,70.6,0,0,0-1.6,14.46c0,18.25,9,32.73,33.61,33.6h3.18a30.22,30.22,0,0,0,10.43-1.73c9.28-3.25,21.34-12.27,35.6-36.4-.17,1.93-.26,3.84-.26,5.69,0,15.06,5.79,26.65,19.69,26.94h.58c11.3,0,20.57-11.3,27.23-22.89-.29,3.48-.58,6.38-.58,9.27,0,4.93.58,9.27,2.32,12.17,3.19,6.08,10.72,7,18,7h3.48c9.29-.39,20.61-18.2,29.9-36,0,.81-.07,1.61-.07,2.41,0,18.25,9,32.73,33.6,33.6h3.19a30.22,30.22,0,0,0,10.43-1.73c9.14-3.21,21-12,35-35.37a102.57,102.57,0,0,0-2,17.41c0,5.21.87,9.84,2.6,12.74,3.19,6.08,10.72,7,18,7H802c9.1-.39,20.23-18.22,29.32-36,0,1-.07,2-.07,3,0,18.25,7.53,33,25.78,33,20,0,34.18-23.17,40.85-41.42h2.31a34.31,34.31,0,0,0,20-6.53c-.41,1.51-.82,3-1.21,4.5-4.35,15.36-7.24,29.55-7.24,35.63,0,6.66,9.56,8.4,16.8,8.4h1.73c1.74-.29,3.19-.87,3.19-2.89.29-6.67,2.9-18.25,6.66-31.29a341.61,341.61,0,0,1,25.49-38.53c3.19-4.05,10.43-12.74,13-15.06a5.2,5.2,0,0,1,2.9-1.74c.58,0,1.15.58,1.15,2,0,3.19-16.22,49-17.37,68.36v2c0,15.35,8.11,17.09,19.4,17.09h5.51c1.16,0,2-1.45,2-2.89,0-1.16-.58-2.61-1.73-2.9-.87-.58-1.16-2.61-1.16-5.51,0-16.8,13.9-55.32,18-75.31ZM480.74,740.9c-3.19,9-14.49,37.07-25.78,37.07h-.87c-4.35-.58-6.09-5.79-6.09-13,0-20.86,15.36-60.25,29.26-62.57h1.45c3.76,0,5.5,2.9,6.37,6.66-5.5,1.45-10.72,9.85-10.72,18.25A16.54,16.54,0,0,0,480.74,740.9Zm170.9-13.62c-2.9,7.24-18.54,37.66-27.23,38-2.9,0-4.35-2.9-4.35-7.82,0-17.09,16.51-56.49,29.55-56.49l1.74.29c3.18.87,4.34,4.06,4.34,8.11C655.69,715.69,653.08,723.52,651.64,727.28ZM884.81,740.9c-2.9,9-14.19,37.07-25.49,37.07h-.87c-4.34-.58-6.08-5.79-6.08-13,0-20.86,15.06-60.25,29-62.57h1.16c4.06,0,5.8,2.9,6.67,6.66-5.51,1.45-10.72,9.85-10.72,18.25A16.56,16.56,0,0,0,884.81,740.9Z" transform="translate(0.5 0.5)"/><path class="cls-4" d="M495,659.06l.13,1.45c.66,2.49,4.6,3.41,7.89,3.41h.65a1.32,1.32,0,0,0,1.32-1.31c.13-11.43,14.06-53.87,18.92-65l.13-1.32v-.52c.39.13,1.58.39,7.1,1.44,6.17,1.32,11.69,2.5,15.89,2.5a11.52,11.52,0,0,0,5.13-.92c1.57-.79,3-3,3.68-5.52a10.35,10.35,0,0,0,.39-2.89,9.36,9.36,0,0,0-.79-3.81,1.34,1.34,0,0,0-1.18-.92,1.18,1.18,0,0,0-.92.4c-1.18,1.31-3.68,1.83-7,1.83-5.52,0-13.27-1.44-21.42-2.89-8.54-1.57-17.48-3.15-24.83-3.28h-2.37c-5.91,0-12.35.66-15.77,5.25-.52.66-1.18,4.21-1.18,7.23,0,2.1.4,4.08,1.32,4.73a1.69,1.69,0,0,0,1.05.4,1.25,1.25,0,0,0,1.18-1c.66-2.37,3.94-3.81,8.93-4.47a44.8,44.8,0,0,1,7.63-.53c3.81,0,8,.4,12.35.79-.13.13-.4.4-.4.66C509.2,603,495,648.29,495,659.06Z" transform="translate(0.5 0.5)"/><path class="cls-4" d="M559.66,615.18c0-2.11-4.21-3.95-7.36-3.95-1.45,0-2.76.4-3.15,1.45a141.77,141.77,0,0,0-5.26,14.45c-3.55,9.59-6.57,16-9.33,20.5-3.42,5.39-5.78,7.23-7.36,7.36-.65,0-.79-1.32-.79-3,.27-9.46,8.81-32.06,10.52-36.27l.13-.66c0-2-4.08-3.81-7.23-3.81-1.44,0-2.76.4-3.28,1.45a166,166,0,0,0-8.68,26.41,50.27,50.27,0,0,0-1.31,10,10.61,10.61,0,0,0,1.05,5.39c1.45,2.76,4.86,3.15,8.15,3.15h1.71c4.73-.26,10-9.46,12.08-13.66a33.33,33.33,0,0,0-.39,4.86,13,13,0,0,0,1.05,5.65c1.71,3,5.78,3.15,9.46,3.15.53,0,.79-.65.79-1.31s-.26-1.31-.66-1.31c-.65-.13-.79-1.32-.79-3,.27-9.46,8.81-32.06,10.52-36.27Z" transform="translate(0.5 0.5)"/><path class="cls-4" d="M236.52,609.85c52.64-2.48,92.38-12.19,158-9.5,14.38.58,37.28,2.06,49.08,18.46,9.58,13.33,7.47,30.43,5.65,39.19,2.21-3.75,15.88-27.79,5.87-51.56-7.65-18.16-24.68-25.64-36.27-30.72-22.79-10-42.77-9-81.79-6.64-31.37,1.92-53.16,6-84.61,7.68-26.35,1.37-44.78.66-53,.46-60.16-1.53-81.44-17.43-89.67-26.35-.12-.13-1.46-1.61-3.12-3.73-3.34-4.28-5.88-7.6-7.2-12.32a24.35,24.35,0,0,1-.83-5.18c3.13-28.95,48.51-57.51,75.11-63a4.23,4.23,0,0,0,3.13-4.3c-.78-7.43-3.13-12.13-6.26-15.65-4.69-5.47-11.73-8.21-17.21-13.3a20.44,20.44,0,0,1-6.26-14.86c0-12.91,10.56-27,19.56-36.38,7.83-8.22,28.56-22.69,44.21-22.69a16.63,16.63,0,0,1,13.3,6.26,9.43,9.43,0,0,1,1.56,5.86c0,14.09-19.17,39.12-31.29,39.12H191.3a4.21,4.21,0,0,0-3.92,3.91c0,12.13,7.83,26.61,20.35,26.61l4.69-.79c23.86-6.26,38.73-32.07,38.73-56.72a51.48,51.48,0,0,0-7.43-27.38c-9.78-15.26-27-22.3-46.16-22.3-16,0-33.65,5.08-48.12,13.69-22.3,12.91-38.73,39.12-38.73,61,0,16,8.61,30.12,29.34,36-23.86,8.21-42.64,23.86-55.94,45-7.82,12.13-11.74,24.65-11.74,36.39,0,13.32,5.5,23.13,9,29.65a99,99,0,0,0,25.19,28.48C146.67,614.09,236.52,609.85,236.52,609.85Z" transform="translate(0.5 0.5)"/><path class="cls-4" d="M907.58,422.45c-28.28,0-50.91,29.61-61.07,60.66-22.88,51.73-30.89,68.07-41.43,68.82-1.56,0-2.34-2.34-2.34-7,0-22.69,18.77-75.11,24.25-102.1l.39-4.69c0-10.57-8.21-16.43-18-16.43-16.83,0-32.08,19.95-44.6,35.2-7,9-13.69,18.78-19.17,27.39,14.47-44.21,32.47-92.72,37.17-104.06l.39-1.56c0-6.26-13.31-11.74-23.09-11.74-5.08,0-9,1.17-10.17,4.3C744,385.79,725.69,436,712.4,480c-23.92,48.78-43,65-56.75,70a35,35,0,0,1-8.61,1.17,30.3,30.3,0,0,1-5.87-.78c-11.34-3.91-15.26-17.61-15.26-31.3A71.43,71.43,0,0,1,629,497.56c7.83-29.34,30.13-56.73,41.08-56.73h1.17c1.57.4,2.35,1.57,2.35,3.53,0,6.25-7.82,19.55-9.39,22.29a2.37,2.37,0,0,0-.39,1.57,3.8,3.8,0,0,0,1.57,3.52,13.84,13.84,0,0,0,7.43,2.35c3.91,0,7.43-2,10.56-5.48,4.3-5.09,7-12.91,7-20.34,0-11.35-5.87-22.69-21.51-25.82a64.21,64.21,0,0,0-8.61-.78c-28.56,0-49.29,29.73-59.07,55.15-1.11,3-2.09,5.93-3,8.91-6.7,14.17-15.88,32.55-24.81,46.25-7.43,11.35-14.47,19.56-19.56,19.95-2.34,0-2.73-3.52-2.73-9,.78-28.17,26.21-95.45,31.29-108l.39-1.57c0-6.26-12.12-11.73-21.51-11.73-4.7,0-8.61,1.56-9.78,4.69-3.91,8.61-10.17,25-15.65,42.64-10.56,28.56-19.56,48.12-27.77,61-10.18,16.43-17.61,21.9-21.91,21.9-2,0-2.35-3.52-2.35-9,.78-28.17,26.21-95.45,31.3-108l.39-1.57c0-5.87-12.13-11.73-21.52-11.73-4.69,0-8.21,1.56-9.78,4.69-4.25,9.08-12.83,31.94-19.46,54.27C441.07,528.9,422.14,545,408.41,550a35,35,0,0,1-8.61,1.17,30.2,30.2,0,0,1-5.86-.78c-11.35-3.91-15.26-17.61-15.26-31.3a71.12,71.12,0,0,1,3.13-21.51c7.82-29.34,30.12-56.73,41.07-56.73h1.18c1.56.4,2.34,1.57,2.34,3.53,0,6.25-7.82,19.55-9.38,22.29a2.33,2.33,0,0,0-.4,1.57,3.83,3.83,0,0,0,1.57,3.52,13.86,13.86,0,0,0,7.43,2.35c3.91,0,7.43-2,10.56-5.48,4.31-5.09,7.05-12.91,7.05-20.34,0-11.35-5.87-22.69-21.52-25.82a64.21,64.21,0,0,0-8.61-.78c-28.55,0-49.29,29.73-59.07,55.15-.61,1.63-1.18,3.27-1.72,4.9a351,351,0,0,1-19.4,35,232.76,232.76,0,0,1-19.56,25.42c3.52-5.47,5.87-12.51,7.83-21.51a59.92,59.92,0,0,0,1.17-11.74c0-16.82-5.48-33.25-5.48-49.68a54.79,54.79,0,0,1,9.39-31.3,3.68,3.68,0,0,0,.79-2.73,3.61,3.61,0,0,0-3.92-3.52H294.19c-7.44,0-27.78,47.72-30.91,54.76a6.71,6.71,0,0,0-.39,2.74,2.66,2.66,0,0,0,2,2.74,3.52,3.52,0,0,0,1.95.39,4.67,4.67,0,0,0,3.52-1.95l14.09-30.52a56.58,56.58,0,0,0-.4,8.22c0,17.21,4.7,39.12,4.7,57.89,0,11-1.57,20.74-7,27.78-2,2.35-4.7,4.3-7,4.3a2.88,2.88,0,0,1-2.35-.78c-1.57-1.17-2.35-3.13-2.35-6.26,0-8.22,5.48-21.91,11.74-27a3.39,3.39,0,0,0,1.56-2.74c0-5.48-11.34-13.69-20.34-13.69a9.84,9.84,0,0,0-8.22,3.91,46.32,46.32,0,0,0-9,26.6c0,16.82,10.95,31.69,34,31.69h3.52c11.74,0,25.43-.78,37.17-13.69a197.69,197.69,0,0,0,18.38-24.26c2.73-4.15,5.41-8.54,8-13.07-.12,1.89-.21,3.78-.21,5.64,0,24.64,12.13,44.2,45.38,45.38h4.3a40.54,40.54,0,0,0,14.09-2.35c12.31-4.31,28.26-16.15,47.08-47.49a132.07,132.07,0,0,0-2.88,24.41c0,6.65.78,12.13,3.13,16,4.3,8.21,14.48,9.39,24.25,9.39H487c9-.39,18.78-11.74,27-25a106.72,106.72,0,0,0,9-15.65,108.79,108.79,0,0,0-1.17,15.26c0,6.65.78,12.13,3.13,16,4.3,8.21,14.47,9.39,24.25,9.39h5.09c7.43-.39,16-9.39,24.64-21.91a282.69,282.69,0,0,0,14.93-25.77c0,.77-.06,1.54-.06,2.3,0,24.64,12.12,44.2,45.38,45.38h4.3a40.48,40.48,0,0,0,14.08-2.35c12-4.21,27.53-15.61,45.78-45.34-3.61,14.27-5.88,26.09-5.88,33.21,1.18,12.13,9,14.48,21.91,14.48,4.69,0,7.83,0,7.83-3.91,0-8.22,3.91-23.48,9-41.47,7-12.52,30.91-52.81,52.42-72.76,1.18-1.18,2.74-2.74,3.91-2.74s1.57.78,1.57,2.74c0,4.3-22.69,66.89-23.47,95.84,0,19.17,10.17,22.69,23.86,22.69l11-.39c11.6-.61,19.39-11,35.26-45.06,0,.68-.05,1.36-.05,2,0,20.34,7.83,36,26.6,36.38h.39c15.65,0,27.78-15.26,37.17-30.91-.39,4.7-.79,8.61-.79,12.52,0,6.65.79,12.52,3.14,16.43,4.69,8.61,15.64,9.39,26.2,9.39,1.18,0,2.35-1.56,2.35-3.13v-1.56a5.88,5.88,0,0,0-1.17-3.92c-1.18-.78-1.18-3.13-1.18-6.26a113,113,0,0,1,1.18-14.47C940,499.12,960,446.7,964.3,435.75l.39-2c0-5.87-12.13-11.34-21.12-11.34-4.31,0-8.22,1.17-9.78,3.91l-2.74,7c-4.7-7.43-13.3-10.56-23.08-10.95Zm6.65,21.91c4.3,1.56,5.86,5.86,5.86,11.34,0,8.21-3.52,19.17-5.47,23.86-3.91,10.17-25,50.86-37.17,51.25-3.91,0-5.47-3.91-5.47-10.17,0-23.08,22.29-76.68,39.9-76.68Z" transform="translate(0.5 0.5)"/><path class="cls-4" d="M915.82,709a79.54,79.54,0,0,1,5.54-20.69c3.36-8,5.87-13.68,11.95-17.49a24.4,24.4,0,0,1,12.83-3.53,308.34,308.34,0,0,0,8.5-98.43,25.63,25.63,0,0,1-11.09,9.38,26.35,26.35,0,0,1-19.2.43,292.57,292.57,0,0,1-15.79,105.37,70.81,70.81,0,0,1,4.06,9.81A71.64,71.64,0,0,1,915.82,709Z" transform="translate(0.5 0.5)"/><path class="cls-4" d="M903,770.68c-1.15,2-2.43,4.2-3.85,6.58A53.94,53.94,0,0,0,903,770.68Z" transform="translate(0.5 0.5)"/><path class="cls-4" d="M882.27,793.27a54.72,54.72,0,0,1-30.88,7.67c-70.6,96.82-184.87,159.75-313.87,159.75C341.25,960.69,179,815.06,152.94,626a148.69,148.69,0,0,1-32.6-9.62c22,211,200.35,375.53,417.18,375.53,60,0,120.67-17.54,124.86-18.9,137-44.25,210.48-151.52,236.79-195.72A54.44,54.44,0,0,1,882.27,793.27Z" transform="translate(0.5 0.5)"/><path class="cls-4" d="M886.23,401.53a107.37,107.37,0,0,1,34.31-.35C864.1,275.14,747.3,182,606.9,158.67v31.66C729.93,212.53,832.8,292.7,886.23,401.53Z" transform="translate(0.5 0.5)"/><path class="cls-4" d="M469.32,190.15V158.48A419.12,419.12,0,0,0,211.1,309a149.49,149.49,0,0,1,31.56,10.84A387.78,387.78,0,0,1,469.32,190.15Z" transform="translate(0.5 0.5)"/><path class="cls-4" d="M907.81,643.63c1.67-8.3,3.13-17.26,4.22-26.85a321.49,321.49,0,0,0,2-40.36l-9.4-2.72c-.09,4.66-.28,10.76-.68,17.9-.31,5.61-.72,12.78-1.7,22-.67,6.24-1.69,14.17-3.29,23.36A26.68,26.68,0,0,1,907.81,643.63Z" transform="translate(0.5 0.5)"/><path class="cls-4" d="M253.64,325.6q5.3,3.06,10.32,6.53A365.58,365.58,0,0,1,469.32,214.68V201.56A375.8,375.8,0,0,0,253.64,325.6Z" transform="translate(0.5 0.5)"/><path class="cls-4" d="M864.49,407.68a105.81,105.81,0,0,1,11-3.74C823.6,299.79,724.88,223.08,606.9,201.4v13.14C719.5,235.84,813.87,308.71,864.49,407.68Z" transform="translate(0.5 0.5)"/><path class="cls-4" d="M176.51,628.17c-3.4,0-6.77-.2-10.12-.48,27.15,181.13,183.39,320,372.09,320,123.76,0,233.54-59.77,302.11-152-2.58-1.45-5.06-3-7.45-4.65-66.63,90.34-173.79,149-294.66,149C354.74,940.05,202.65,804.64,176.51,628.17Z" transform="translate(0.5 0.5)"/><text class="cls-5" transform="translate(449.26 871.04)">POD<tspan class="cls-6" x="84.53" y="0">C</tspan><tspan x="110.69" y="0">AST</tspan></text><g id="Micrófono"><rect x="536.85" y="273.25" width="7.3" height="69.36"/><path class="cls-7" d="M583.81,119v44.63a2,2,0,0,0-1,.11,124.43,124.43,0,0,1-76.7,6.54c-3.36-.79-6.66-1.72-9.93-2.79V119a43.47,43.47,0,0,1,43.43-43.42h.76A42.33,42.33,0,0,1,554.64,78,43.43,43.43,0,0,1,583.81,119Z" transform="translate(0.5 0.5)"/><path class="cls-8" d="M496.19,171.33a126.16,126.16,0,0,0,38.22,5.89,127.06,127.06,0,0,0,49.4-9.92v7.32a1.77,1.77,0,0,0-1,.1,124.06,124.06,0,0,1-86.63,3.74Z" transform="translate(0.5 0.5)"/><path class="cls-9" d="M583.81,178.25v38.3a43.5,43.5,0,0,1-39.87,43.28c-1.17.09-2.35.14-3.56.14h-.76a43.47,43.47,0,0,1-43.43-43.42V182.28a121.47,121.47,0,0,0,12.16,3.2,128.07,128.07,0,0,0,75.46-7.23Z" transform="translate(0.5 0.5)"/><path class="cls-10" d="M578.49,154.45a3.31,3.31,0,0,0-1.68-.45l-.88.11a3.43,3.43,0,0,0-1.47.86,2.48,2.48,0,0,0-.68,1.07,2.44,2.44,0,0,0-.29,1.28,3.24,3.24,0,0,0,.45,1.67,3.45,3.45,0,0,0,1.2,1.2l.14.08.78.33a2.44,2.44,0,0,0,1.31.06,1.61,1.61,0,0,0,.83-.22,2.36,2.36,0,0,0,1-.68l.52-.66.33-.79a2.64,2.64,0,0,0,.06-1.31,2.47,2.47,0,0,0-.39-1.22l-.09-.14A3.31,3.31,0,0,0,578.49,154.45Z" transform="translate(0.5 0.5)"/><path class="cls-11" d="M578,146a2.61,2.61,0,0,0-3.57.93l-.05.08a2.61,2.61,0,0,0-.36,1.34,2.68,2.68,0,0,0,.36,1.35,2.65,2.65,0,0,0,1,1,2.53,2.53,0,0,0,1.34.37,2.59,2.59,0,0,0,1.35-.37,2.55,2.55,0,0,0,1-1,2.59,2.59,0,0,0,.37-1.35A2.53,2.53,0,0,0,579,147l0-.08A2.7,2.7,0,0,0,578,146Z" transform="translate(0.5 0.5)"/><path class="cls-12" d="M578,137.28a1.85,1.85,0,0,0-.82-.53,1.9,1.9,0,0,0-1-.22l-.68.09a2.51,2.51,0,0,0-1.12.66l-.4.51a2.5,2.5,0,0,0-.34,1.28c0,.07,0,.13,0,.19a2,2,0,0,0,.22,1,2.32,2.32,0,0,0,1.35,1.35,2,2,0,0,0,1,.22l.67-.09a2.58,2.58,0,0,0,1.13-.66l.4-.52a2.55,2.55,0,0,0,.35-1.29l0-.19a2,2,0,0,0-.21-1A2,2,0,0,0,578,137.28Z" transform="translate(0.5 0.5)"/><path class="cls-13" d="M577.18,127.64a1.91,1.91,0,0,0-.94-.21l-.66.09a2.33,2.33,0,0,0-1.08.63,1.62,1.62,0,0,0-.42.55v0a2.44,2.44,0,0,0-.34,1.27c0,.11,0,.23,0,.34a2.5,2.5,0,0,0,.07.41l0,.08.25.59a1.75,1.75,0,0,0,.63.69,1.18,1.18,0,0,0,.55.32,1.82,1.82,0,0,0,1,.21l.65-.09.59-.24a1.85,1.85,0,0,0,.69-.64,1.8,1.8,0,0,0,.44-.84l0-.08a2.33,2.33,0,0,0,.07-.41,2,2,0,0,0,0-.34,1.8,1.8,0,0,0-.21-1l-.14-.33a1.4,1.4,0,0,0-.42-.55A1.8,1.8,0,0,0,577.18,127.64Z" transform="translate(0.5 0.5)"/><path class="cls-14" d="M576.14,118.25a1.52,1.52,0,0,0-.76.17,1.46,1.46,0,0,0-.65.42,1.5,1.5,0,0,0-.41.64,1.55,1.55,0,0,0-.17.77c0,.17.05.35.07.53a2.17,2.17,0,0,0,.51.88l.41.31a2,2,0,0,0,1,.27,1.53,1.53,0,0,0,.77-.17,1.83,1.83,0,0,0,1.06-1,1.58,1.58,0,0,0,.17-.77c0-.18,0-.36-.07-.53a2,2,0,0,0-.52-.88l-.4-.32A2,2,0,0,0,576.14,118.25Z" transform="translate(0.5 0.5)"/><path class="cls-15" d="M574.72,109.25l-.5.21a2.24,2.24,0,0,0-.75.75l-.07.12a2.08,2.08,0,0,0-.28,1.06c0,.19,0,.37.07.56a2.1,2.1,0,0,0,.54.92,2.15,2.15,0,0,0,3,0,2,2,0,0,0,.53-.92l0-.14a1.56,1.56,0,0,0,0-.83,1.67,1.67,0,0,0-.25-.77l-.33-.42a1.46,1.46,0,0,0-.67-.43,1,1,0,0,0-.52-.15A1.56,1.56,0,0,0,574.72,109.25Z" transform="translate(0.5 0.5)"/><path class="cls-16" d="M572.92,104.25a1.35,1.35,0,0,0-.36.56,1.28,1.28,0,0,0-.15.66l.06.46a1.68,1.68,0,0,0,.45.76l.35.27a1.68,1.68,0,0,0,.87.24,1.24,1.24,0,0,0,.66-.15,1.29,1.29,0,0,0,.56-.36,1.26,1.26,0,0,0,.36-.55,1.39,1.39,0,0,0,.14-.67l-.06-.45a1.75,1.75,0,0,0-.44-.77L575,104a1.77,1.77,0,0,0-.87-.23,1.29,1.29,0,0,0-.67.15A1.33,1.33,0,0,0,572.92,104.25Z" transform="translate(0.5 0.5)"/><path class="cls-17" d="M570.66,98.11a1.69,1.69,0,0,0-.23.85l.06.45a1.7,1.7,0,0,0,.44.74,1.81,1.81,0,0,0,1.19.49,1.28,1.28,0,0,0,.64-.14,1.4,1.4,0,0,0,.55-.35,1.78,1.78,0,0,0,.43-.74l0-.17a2.45,2.45,0,0,0,.08-.58l-.06-.44-.16-.39-.26-.33a1.21,1.21,0,0,0-.52-.34.88.88,0,0,0-.42-.11.79.79,0,0,0-.43,0,.81.81,0,0,0-.41.11,1.24,1.24,0,0,0-.53.34,1.48,1.48,0,0,0-.32.46Z" transform="translate(0.5 0.5)"/><path class="cls-18" d="M569,92.55v0l0,.05,0,.08a1.34,1.34,0,0,1,.07.18l.09.2a.61.61,0,0,0,.21.24.52.52,0,0,0,.19.11.71.71,0,0,0,.32.07l.23,0,.2-.09a.52.52,0,0,0,.23-.21.64.64,0,0,0,.16-.29,1.34,1.34,0,0,1,.07-.18.88.88,0,0,0,.09-.43.67.67,0,0,0-.08-.37,1,1,0,0,0-.9-.61l-.26,0a1,1,0,0,0-.43.25l-.15.2a1,1,0,0,0-.14.49.32.32,0,0,0,0,.14A.32.32,0,0,0,569,92.55Z" transform="translate(0.5 0.5)"/><path class="cls-19" d="M569.28,155.07l-.67-.53a3.38,3.38,0,0,0-1.7-.45,2.49,2.49,0,0,0-1.29.28,2.53,2.53,0,0,0-1.07.7,3.3,3.3,0,0,0-.87,1.47,3.62,3.62,0,0,0,0,1.79,4.5,4.5,0,0,0,.38.89,3.31,3.31,0,0,0,1.19,1.19,3.31,3.31,0,0,0,3.33,0,3.31,3.31,0,0,0,1.19-1.19,4.48,4.48,0,0,0,.37-.89,3.4,3.4,0,0,0,0-1.79A3.19,3.19,0,0,0,569.28,155.07Z" transform="translate(0.5 0.5)"/><path class="cls-20" d="M565.82,146a2.57,2.57,0,0,0-1.08.63,2.45,2.45,0,0,0-.63,1.08,2.39,2.39,0,0,0,0,1.3,2.46,2.46,0,0,0,1.71,1.71h0a2.39,2.39,0,0,0,1.3,0,2.45,2.45,0,0,0,1.08-.63,2.36,2.36,0,0,0,.63-1.08,2.39,2.39,0,0,0,0-1.3h0a2.46,2.46,0,0,0-1.71-1.71A2.39,2.39,0,0,0,565.82,146Z" transform="translate(0.5 0.5)"/><path class="cls-21" d="M565.07,142a1.73,1.73,0,0,0,.91.25,1.31,1.31,0,0,0,.7-.16,1.29,1.29,0,0,0,.58-.37,1.92,1.92,0,0,0,.53-1.28l-.06-.48a1.76,1.76,0,0,0-.47-.8l-.36-.28a1.77,1.77,0,0,0-.92-.25,1.41,1.41,0,0,0-.7.15,1.46,1.46,0,0,0-.58.38,1.38,1.38,0,0,0-.37.58,1.31,1.31,0,0,0-.16.7c0,.16,0,.32.07.48a1.79,1.79,0,0,0,.46.8Z" transform="translate(0.5 0.5)"/><path class="cls-22" d="M566.83,130.19a2.13,2.13,0,0,0-1.08-.29,1.55,1.55,0,0,0-.82.19,1.49,1.49,0,0,0-.69.44,1.6,1.6,0,0,0-.45.69,1.64,1.64,0,0,0-.18.82l.08.57a2,2,0,0,0,.55.94l.43.34a2.13,2.13,0,0,0,1.08.29,1.55,1.55,0,0,0,.82-.19,1.89,1.89,0,0,0,1.13-1.13,1.55,1.55,0,0,0,.19-.82c0-.19,0-.38-.08-.57a2,2,0,0,0-.55-.94Z" transform="translate(0.5 0.5)"/><path class="cls-23" d="M564.09,121a3.43,3.43,0,0,0-.36.47,1.56,1.56,0,0,0-.28.66,2.2,2.2,0,0,0,0,1.14,2.23,2.23,0,0,0,.55.94l.44.34a2.13,2.13,0,0,0,1.08.29,2.31,2.31,0,0,0,1.51-.63,2.13,2.13,0,0,0,.55-.94,2.2,2.2,0,0,0,0-1.14,1.56,1.56,0,0,0-.28-.66,3.43,3.43,0,0,0-.36-.47,2,2,0,0,0-1.42-.59A2,2,0,0,0,564.09,121Z" transform="translate(0.5 0.5)"/><path class="cls-24" d="M564.35,108.7a2.9,2.9,0,0,0-.41.06h-.09l-.46.19a1.47,1.47,0,0,0-.53.49.89.89,0,0,0-.24.42,1.42,1.42,0,0,0-.16.73,1.36,1.36,0,0,0,0,.2,1.46,1.46,0,0,0,.16.72,1.49,1.49,0,0,0,.39.6,1.31,1.31,0,0,0,.6.39,1.36,1.36,0,0,0,.72.16l.5-.07a1.67,1.67,0,0,0,.82-.48l.3-.37a1.88,1.88,0,0,0,.25-1l0-.2c0-.17,0-.34-.07-.5a1.4,1.4,0,0,0-.34-.65,1,1,0,0,0-.34-.34,1.42,1.42,0,0,0-.64-.34A1.44,1.44,0,0,0,564.35,108.7Z" transform="translate(0.5 0.5)"/><path class="cls-25" d="M563.65,99.51a1.16,1.16,0,0,0-.64,0h0l-.39.17a1.14,1.14,0,0,0-.45.42.84.84,0,0,0-.21.35,1.26,1.26,0,0,0-.14.63v.17l0,.41a1.62,1.62,0,0,0,.1.18l0,.22.12.3.2.25a1,1,0,0,0,.4.26,1.21,1.21,0,0,0,.65.09.59.59,0,0,0,.32-.09,1,1,0,0,0,.37-.24l.1,0,.31-.24,0,0,.07-.08.26-.33a1.32,1.32,0,0,0,.19-.6.82.82,0,0,0,0-.44,1.32,1.32,0,0,0-.19-.6h0l-.25-.32a1.27,1.27,0,0,0-.52-.34A.84.84,0,0,0,563.65,99.51Z" transform="translate(0.5 0.5)"/><path class="cls-26" d="M559.52,92.4a1.79,1.79,0,0,0,.28.86,2.57,2.57,0,0,0,1.37,1l.61.08a2.27,2.27,0,0,0,1.16-.31l.46-.36a2.25,2.25,0,0,0,.59-1l.08-.19a1.43,1.43,0,0,0,.07-.38,1.38,1.38,0,0,0,0-.39c0-.2,0-.4-.08-.6s-.15-.36-.23-.54l-.35-.45a1.64,1.64,0,0,0-.72-.47,1.16,1.16,0,0,0-.57-.15,1,1,0,0,0-.6,0,1.1,1.1,0,0,0-.57.15,1.73,1.73,0,0,0-.73.47,1.48,1.48,0,0,0-.24.29,1.22,1.22,0,0,0-.3.5l-.12.29,0,.05-.07.2A1.76,1.76,0,0,0,559.52,92.4Z" transform="translate(0.5 0.5)"/><path class="cls-27" d="M557.14,85.27a1.3,1.3,0,0,0,.23.18l.26.11h0l.08,0,.07,0,.24,0a.8.8,0,0,0,.46,0h.06l.08,0,.16,0,.27-.11a.84.84,0,0,0,.31-.28.48.48,0,0,0,.14-.25.88.88,0,0,0,.1-.43,2.89,2.89,0,0,1,0-.29c0-.09-.08-.18-.11-.27a.86.86,0,0,0-.29-.31.78.78,0,0,0-.38-.2l-.16,0h-.14a1,1,0,0,0-.46,0l-.23,0-.08,0-.08,0h0a1.05,1.05,0,0,0-.5.29.89.89,0,0,0-.23.35.76.76,0,0,0-.09.42,2.54,2.54,0,0,0,0,.29A1,1,0,0,0,557.14,85.27Z" transform="translate(0.5 0.5)"/><path class="cls-28" d="M556.86,248.82l.72.56a3.68,3.68,0,0,0,1.8.49,2.79,2.79,0,0,0,1.37-.31,2.57,2.57,0,0,0,1.15-.74,2.66,2.66,0,0,0,.74-1.15,2.79,2.79,0,0,0,.31-1.37c-.05-.31-.09-.63-.13-1a3.58,3.58,0,0,0-.92-1.57l-.72-.56a3.57,3.57,0,0,0-1.8-.48,3.91,3.91,0,0,0-2.52,1,2.72,2.72,0,0,0-.74,1.15,2.79,2.79,0,0,0-.31,1.37c.05.32.09.63.13.95A3.58,3.58,0,0,0,556.86,248.82Z" transform="translate(0.5 0.5)"/><path class="cls-29" d="M567.78,242.15c5.87-5.88,9.26-13.3,11-21.41a65.77,65.77,0,0,0,1.44-12c.08-3.9.08-8.21-1.87-11.71a1.12,1.12,0,0,0-2,.27c-.65,3.64-.06,7.39-.16,11.07a52,52,0,0,1-1.52,11.24c-1.85,7.36-5.11,14.47-8.57,21.2A1.12,1.12,0,0,0,567.78,242.15Z" transform="translate(0.5 0.5)"/><path class="cls-30" d="M576.08,187h0c0,.2,0,.4,0,.6a11.22,11.22,0,0,1,0,1.16c0,.19,0,.37,0,.56v0s0,0,0,0,0,.24-.07.36a1.13,1.13,0,0,0,2.18.6,11.7,11.7,0,0,0,.49-2.69,8.15,8.15,0,0,0,0-1.21,3,3,0,0,0-.18-.89,3,3,0,0,0-.34-.79,1.2,1.2,0,0,0-1.16-.55,1.15,1.15,0,0,0-1,.83,4.69,4.69,0,0,0,0,1.4C576,186.64,576.05,186.82,576.08,187Z" transform="translate(0.5 0.5)"/><path class="cls-31" d="M543.94,259.83c-1.17.09-2.35.14-3.56.14h-.76a43.47,43.47,0,0,1-43.43-43.42V182.28a121.47,121.47,0,0,0,12.16,3.2c0,1.08,0,2.13.07,3.21.22,10.28.44,20.61,2.5,30.67S517,239.29,524,246.85A52.12,52.12,0,0,0,543.94,259.83Z" transform="translate(0.5 0.5)"/><path class="cls-32" d="M554.64,78c-11.41,2.66-22.18,7.44-30.32,15.69s-12.83,19-15.75,30.12a114.65,114.65,0,0,0-2.45,46.46c-3.36-.79-6.66-1.72-9.93-2.79V119a43.47,43.47,0,0,1,43.43-43.42h.76A42.33,42.33,0,0,1,554.64,78Z" transform="translate(0.5 0.5)"/><path class="cls-4" d="M584.16,168.16c-3.06-1.34-7.07.91-10.12,1.77q-5.4,1.53-10.89,2.64a138,138,0,0,1-21.63,2.62,161.6,161.6,0,0,1-21.56-.38c-7.65-.68-15-2.55-22.55-3.68a1,1,0,0,0-.52,1.9c7,2.87,15.13,4,22.63,5.06a142,142,0,0,0,22,1.37,160.42,160.42,0,0,0,22.1-2.06q5.75-.92,11.41-2.31c3-.72,8.26-1.21,9.89-4.05A2.12,2.12,0,0,0,584.16,168.16Z" transform="translate(0.5 0.5)"/><path class="cls-4" d="M600.23,172.43s0-.06,0-.09a5.5,5.5,0,0,0-.34-.82.8.8,0,0,0-.08-.16,6.87,6.87,0,0,0-.48-.62l-.06-.07a.46.46,0,0,0-.07-.07,6.14,6.14,0,0,0-.63-.48.56.56,0,0,0-.15-.1c-.13-.07-.29-.12-.41-.18s-.29-.13-.43-.17l-.08,0a7.9,7.9,0,0,0-.83-.12h-.24c-.19,0-.58.07-.77.11l-.08,0a.13.13,0,0,0-.08,0c-.17.06-.54.21-.7.29l-.06,0a3.52,3.52,0,0,0-.69.53.12.12,0,0,0,0,.05,1.12,1.12,0,0,0-.13.16h0a3.48,3.48,0,0,0-.63.8.56.56,0,0,0-.09.17c-.1.22-.21.45-.29.68l0,.11a.19.19,0,0,0,0,.08c0,.25-.08.52-.11.78a1.08,1.08,0,0,0,0,.18,6.82,6.82,0,0,0,.1.79s0,.06,0,.09a.24.24,0,0,0,0,.08,7.33,7.33,0,0,0,.3.72.64.64,0,0,0,.08.14l0,.08c.15.2.3.41.47.6l.12.12c.19.16.4.32.6.46l.09.06.15.08.09,0v39.73a54.43,54.43,0,0,1-54.37,54.37h-.78a54.43,54.43,0,0,1-54.37-54.37V177.3a3.68,3.68,0,0,0,.65-.35,4.56,4.56,0,0,0,.75-.61,3.47,3.47,0,0,0,.3-.37,4,4,0,0,0,.3-.39c0-.05.05-.09.07-.14a7.19,7.19,0,0,0,.32-.76,4,4,0,0,0,.17-1,1.41,1.41,0,0,0,0-.29,4.58,4.58,0,0,0-.15-1c0-.15-.13-.3-.19-.45a3.76,3.76,0,0,0-.2-.46,3.39,3.39,0,0,0-.38-.53,3.28,3.28,0,0,0-.42-.5,8,8,0,0,0-.65-.5l-.15-.1-.13-.07c-.25-.11-.51-.23-.77-.32l-.14,0a6.79,6.79,0,0,0-.89-.12,4.58,4.58,0,0,0-1,.1,1.58,1.58,0,0,0-.31.09,3.86,3.86,0,0,0-1.68,1c-.08.09-.15.2-.23.3a2.83,2.83,0,0,0-.61.82,4,4,0,0,0-.48,1.86v.15c0,.28.07.56.11.83a1.71,1.71,0,0,0,.09.3,5.1,5.1,0,0,0,.38.87,5.64,5.64,0,0,0,.58.78,1.8,1.8,0,0,0,.2.19,4.45,4.45,0,0,0,.79.57h0v39.39a58.09,58.09,0,0,0,51.11,57.6v69.79h14.6V274.15a58.09,58.09,0,0,0,51.11-57.6V176.76a.57.57,0,0,0,.13-.08,5.7,5.7,0,0,0,.68-.54,5.06,5.06,0,0,0,.53-.69,1.1,1.1,0,0,0,.09-.14c.11-.24.21-.49.31-.74l0-.09a1,1,0,0,0,0-.17c0-.25.08-.54.11-.8,0,0,0-.07,0-.1v-.17C600.31,173,600.27,172.69,600.23,172.43ZM543.65,340.29h-7.3V274.58h7.3Z" transform="translate(0.5 0.5)"/><path d="M539.61,72A47.12,47.12,0,0,0,492.54,119v97.52a47.12,47.12,0,0,0,47.07,47.07h.78a47.12,47.12,0,0,0,47.07-47.07V119A47.12,47.12,0,0,0,540.39,72" transform="translate(0.5 0.5)"/><path class="cls-4" d="M496.19,119a43.47,43.47,0,0,1,43.42-43.42h.78A43.47,43.47,0,0,1,583.81,119v44.64a1.77,1.77,0,0,0-1,.1,124.12,124.12,0,0,1-86.63,3.74Z" transform="translate(0.5 0.5)"/><path class="cls-4" d="M496.19,171.33a126.16,126.16,0,0,0,38.22,5.89,127.06,127.06,0,0,0,49.4-9.92v7.32a1.77,1.77,0,0,0-1,.1,124.06,124.06,0,0,1-86.63,3.74Z" transform="translate(0.5 0.5)"/><path class="cls-4" d="M496.19,182.28a126.16,126.16,0,0,0,38.22,5.89,127.06,127.06,0,0,0,49.4-9.92v38.3A43.47,43.47,0,0,1,540.39,260h-.78a43.47,43.47,0,0,1-43.42-43.42Z" transform="translate(0.5 0.5)"/><path class="cls-4" d="M540.39,62.83a54.43,54.43,0,0,1,54.37,54.37v14.88l-3.65-1.71v32.86l12.78-6V136.36l-5.48-2.57V117.2a58.09,58.09,0,0,0-58-58" transform="translate(0.5 0.5)"/><path class="cls-4" d="M539.61,59.18a58.09,58.09,0,0,0-58,58v16.59l-5.48,2.57v20.88l12.78,6V130.37l-3.65,1.71V117.2a54.43,54.43,0,0,1,54.37-54.37" transform="translate(0.5 0.5)"/><path class="cls-4" d="M578.49,154.45a3.31,3.31,0,0,0-1.68-.45l-.88.11a3.43,3.43,0,0,0-1.47.86,2.48,2.48,0,0,0-.68,1.07,2.44,2.44,0,0,0-.29,1.28,3.24,3.24,0,0,0,.45,1.67,3.45,3.45,0,0,0,1.2,1.2l.14.08.78.33a2.44,2.44,0,0,0,1.31.06,1.61,1.61,0,0,0,.83-.22,2.36,2.36,0,0,0,1-.68l.52-.66.33-.79a2.64,2.64,0,0,0,.06-1.31,2.47,2.47,0,0,0-.39-1.22l-.09-.14A3.31,3.31,0,0,0,578.49,154.45Z" transform="translate(0.5 0.5)"/><path class="cls-4" d="M578,146a2.61,2.61,0,0,0-3.57.93l-.05.08a2.61,2.61,0,0,0-.36,1.34,2.68,2.68,0,0,0,.36,1.35,2.65,2.65,0,0,0,1,1,2.53,2.53,0,0,0,1.34.37,2.59,2.59,0,0,0,1.35-.37,2.55,2.55,0,0,0,1-1,2.59,2.59,0,0,0,.37-1.35A2.53,2.53,0,0,0,579,147l0-.08A2.7,2.7,0,0,0,578,146Z" transform="translate(0.5 0.5)"/><path class="cls-4" d="M578,137.28a1.85,1.85,0,0,0-.82-.53,1.9,1.9,0,0,0-1-.22l-.68.09a2.51,2.51,0,0,0-1.12.66l-.4.51a2.5,2.5,0,0,0-.34,1.28c0,.07,0,.13,0,.19a2,2,0,0,0,.22,1,2.32,2.32,0,0,0,1.35,1.35,2,2,0,0,0,1,.22l.67-.09a2.58,2.58,0,0,0,1.13-.66l.4-.52a2.55,2.55,0,0,0,.35-1.29l0-.19a2,2,0,0,0-.21-1A2,2,0,0,0,578,137.28Z" transform="translate(0.5 0.5)"/><path class="cls-4" d="M577.18,127.64a1.91,1.91,0,0,0-.94-.21l-.66.09a2.33,2.33,0,0,0-1.08.63,1.62,1.62,0,0,0-.42.55v0a2.44,2.44,0,0,0-.34,1.27c0,.11,0,.23,0,.34a2.5,2.5,0,0,0,.07.41l0,.08.25.59a1.75,1.75,0,0,0,.63.69,1.18,1.18,0,0,0,.55.32,1.82,1.82,0,0,0,1,.21l.65-.09.59-.24a1.85,1.85,0,0,0,.69-.64,1.8,1.8,0,0,0,.44-.84l0-.08a2.33,2.33,0,0,0,.07-.41,2,2,0,0,0,0-.34,1.8,1.8,0,0,0-.21-1l-.14-.33a1.4,1.4,0,0,0-.42-.55A1.8,1.8,0,0,0,577.18,127.64Z" transform="translate(0.5 0.5)"/><path class="cls-4" d="M576.14,118.25a1.52,1.52,0,0,0-.76.17,1.46,1.46,0,0,0-.65.42,1.5,1.5,0,0,0-.41.64,1.55,1.55,0,0,0-.17.77c0,.17.05.35.07.53a2.17,2.17,0,0,0,.51.88l.41.31a2,2,0,0,0,1,.27,1.53,1.53,0,0,0,.77-.17,1.83,1.83,0,0,0,1.06-1,1.58,1.58,0,0,0,.17-.77c0-.18,0-.36-.07-.53a2,2,0,0,0-.52-.88l-.4-.32A2,2,0,0,0,576.14,118.25Z" transform="translate(0.5 0.5)"/><path class="cls-4" d="M574.72,109.25l-.5.21a2.24,2.24,0,0,0-.75.75l-.07.12a2.08,2.08,0,0,0-.28,1.06c0,.19,0,.37.07.56a2.1,2.1,0,0,0,.54.92,2.15,2.15,0,0,0,3,0,2,2,0,0,0,.53-.92l0-.14a1.56,1.56,0,0,0,0-.83,1.67,1.67,0,0,0-.25-.77l-.33-.42a1.46,1.46,0,0,0-.67-.43,1,1,0,0,0-.52-.15A1.56,1.56,0,0,0,574.72,109.25Z" transform="translate(0.5 0.5)"/><path class="cls-4" d="M572.92,104.25a1.35,1.35,0,0,0-.36.56,1.28,1.28,0,0,0-.15.66l.06.46a1.68,1.68,0,0,0,.45.76l.35.27a1.68,1.68,0,0,0,.87.24,1.24,1.24,0,0,0,.66-.15,1.29,1.29,0,0,0,.56-.36,1.26,1.26,0,0,0,.36-.55,1.39,1.39,0,0,0,.14-.67l-.06-.45a1.75,1.75,0,0,0-.44-.77L575,104a1.77,1.77,0,0,0-.87-.23,1.29,1.29,0,0,0-.67.15A1.33,1.33,0,0,0,572.92,104.25Z" transform="translate(0.5 0.5)"/><path class="cls-4" d="M570.66,98.11a1.69,1.69,0,0,0-.23.85l.06.45a1.7,1.7,0,0,0,.44.74,1.81,1.81,0,0,0,1.19.49,1.28,1.28,0,0,0,.64-.14,1.4,1.4,0,0,0,.55-.35,1.78,1.78,0,0,0,.43-.74l0-.17a2.45,2.45,0,0,0,.08-.58l-.06-.44-.16-.39-.26-.33a1.21,1.21,0,0,0-.52-.34.88.88,0,0,0-.42-.11.79.79,0,0,0-.43,0,.81.81,0,0,0-.41.11,1.24,1.24,0,0,0-.53.34,1.48,1.48,0,0,0-.32.46Z" transform="translate(0.5 0.5)"/><path class="cls-4" d="M569,92.55v0l0,.05,0,.08a1.34,1.34,0,0,1,.07.18l.09.2a.61.61,0,0,0,.21.24.52.52,0,0,0,.19.11.71.71,0,0,0,.32.07l.23,0,.2-.09a.52.52,0,0,0,.23-.21.64.64,0,0,0,.16-.29,1.34,1.34,0,0,1,.07-.18.88.88,0,0,0,.09-.43.67.67,0,0,0-.08-.37,1,1,0,0,0-.9-.61l-.26,0a1,1,0,0,0-.43.25l-.15.2a1,1,0,0,0-.14.49.32.32,0,0,0,0,.14A.32.32,0,0,0,569,92.55Z" transform="translate(0.5 0.5)"/><path class="cls-4" d="M569.28,155.07l-.67-.53a3.38,3.38,0,0,0-1.7-.45,2.49,2.49,0,0,0-1.29.28,2.53,2.53,0,0,0-1.07.7,3.3,3.3,0,0,0-.87,1.47,3.62,3.62,0,0,0,0,1.79,4.5,4.5,0,0,0,.38.89,3.31,3.31,0,0,0,1.19,1.19,3.31,3.31,0,0,0,3.33,0,3.31,3.31,0,0,0,1.19-1.19,4.48,4.48,0,0,0,.37-.89,3.4,3.4,0,0,0,0-1.79A3.19,3.19,0,0,0,569.28,155.07Z" transform="translate(0.5 0.5)"/><path class="cls-4" d="M565.82,146a2.57,2.57,0,0,0-1.08.63,2.45,2.45,0,0,0-.63,1.08,2.39,2.39,0,0,0,0,1.3,2.46,2.46,0,0,0,1.71,1.71h0a2.39,2.39,0,0,0,1.3,0,2.45,2.45,0,0,0,1.08-.63,2.36,2.36,0,0,0,.63-1.08,2.39,2.39,0,0,0,0-1.3h0a2.46,2.46,0,0,0-1.71-1.71A2.39,2.39,0,0,0,565.82,146Z" transform="translate(0.5 0.5)"/><path class="cls-4" d="M565.07,142a1.73,1.73,0,0,0,.91.25,1.31,1.31,0,0,0,.7-.16,1.29,1.29,0,0,0,.58-.37,1.92,1.92,0,0,0,.53-1.28l-.06-.48a1.76,1.76,0,0,0-.47-.8l-.36-.28a1.77,1.77,0,0,0-.92-.25,1.41,1.41,0,0,0-.7.15,1.46,1.46,0,0,0-.58.38,1.38,1.38,0,0,0-.37.58,1.31,1.31,0,0,0-.16.7c0,.16,0,.32.07.48a1.79,1.79,0,0,0,.46.8Z" transform="translate(0.5 0.5)"/><path class="cls-4" d="M566.83,130.19a2.13,2.13,0,0,0-1.08-.29,1.55,1.55,0,0,0-.82.19,1.49,1.49,0,0,0-.69.44,1.6,1.6,0,0,0-.45.69,1.64,1.64,0,0,0-.18.82l.08.57a2,2,0,0,0,.55.94l.43.34a2.13,2.13,0,0,0,1.08.29,1.55,1.55,0,0,0,.82-.19,1.89,1.89,0,0,0,1.13-1.13,1.55,1.55,0,0,0,.19-.82c0-.19,0-.38-.08-.57a2,2,0,0,0-.55-.94Z" transform="translate(0.5 0.5)"/><path class="cls-4" d="M564.09,121a3.43,3.43,0,0,0-.36.47,1.56,1.56,0,0,0-.28.66,2.2,2.2,0,0,0,0,1.14,2.23,2.23,0,0,0,.55.94l.44.34a2.13,2.13,0,0,0,1.08.29,2.31,2.31,0,0,0,1.51-.63,2.13,2.13,0,0,0,.55-.94,2.2,2.2,0,0,0,0-1.14,1.56,1.56,0,0,0-.28-.66,3.43,3.43,0,0,0-.36-.47,2,2,0,0,0-1.42-.59A2,2,0,0,0,564.09,121Z" transform="translate(0.5 0.5)"/><path class="cls-4" d="M564.35,108.7a2.9,2.9,0,0,0-.41.06h-.09l-.46.19a1.47,1.47,0,0,0-.53.49.89.89,0,0,0-.24.42,1.42,1.42,0,0,0-.16.73,1.36,1.36,0,0,0,0,.2,1.46,1.46,0,0,0,.16.72,1.49,1.49,0,0,0,.39.6,1.31,1.31,0,0,0,.6.39,1.36,1.36,0,0,0,.72.16l.5-.07a1.67,1.67,0,0,0,.82-.48l.3-.37a1.88,1.88,0,0,0,.25-1l0-.2c0-.17,0-.34-.07-.5a1.4,1.4,0,0,0-.34-.65,1,1,0,0,0-.34-.34,1.42,1.42,0,0,0-.64-.34A1.44,1.44,0,0,0,564.35,108.7Z" transform="translate(0.5 0.5)"/><path class="cls-4" d="M563.65,99.51a1.16,1.16,0,0,0-.64,0h0l-.39.17a1.14,1.14,0,0,0-.45.42.84.84,0,0,0-.21.35,1.26,1.26,0,0,0-.14.63v.17l0,.41a1.62,1.62,0,0,0,.1.18l0,.22.12.3.2.25a1,1,0,0,0,.4.26,1.21,1.21,0,0,0,.65.09.59.59,0,0,0,.32-.09,1,1,0,0,0,.37-.24l.1,0,.31-.24,0,0,.07-.08.26-.33a1.32,1.32,0,0,0,.19-.6.82.82,0,0,0,0-.44,1.32,1.32,0,0,0-.19-.6h0l-.25-.32a1.27,1.27,0,0,0-.52-.34A.84.84,0,0,0,563.65,99.51Z" transform="translate(0.5 0.5)"/><path class="cls-4" d="M559.52,92.4a1.79,1.79,0,0,0,.28.86,2.57,2.57,0,0,0,1.37,1l.61.08a2.27,2.27,0,0,0,1.16-.31l.46-.36a2.25,2.25,0,0,0,.59-1l.08-.19a1.43,1.43,0,0,0,.07-.38,1.38,1.38,0,0,0,0-.39c0-.2,0-.4-.08-.6s-.15-.36-.23-.54l-.35-.45a1.64,1.64,0,0,0-.72-.47,1.16,1.16,0,0,0-.57-.15,1,1,0,0,0-.6,0,1.1,1.1,0,0,0-.57.15,1.73,1.73,0,0,0-.73.47,1.48,1.48,0,0,0-.24.29,1.22,1.22,0,0,0-.3.5l-.12.29,0,.05-.07.2A1.76,1.76,0,0,0,559.52,92.4Z" transform="translate(0.5 0.5)"/><path class="cls-4" d="M557.14,85.27a1.3,1.3,0,0,0,.23.18l.26.11h0l.08,0,.07,0,.24,0a.8.8,0,0,0,.46,0h.06l.08,0,.16,0,.27-.11a.84.84,0,0,0,.31-.28.48.48,0,0,0,.14-.25.88.88,0,0,0,.1-.43,2.89,2.89,0,0,1,0-.29c0-.09-.08-.18-.11-.27a.86.86,0,0,0-.29-.31.78.78,0,0,0-.38-.2l-.16,0h-.14a1,1,0,0,0-.46,0l-.23,0-.08,0-.08,0h0a1.05,1.05,0,0,0-.5.29.89.89,0,0,0-.23.35.76.76,0,0,0-.09.42,2.54,2.54,0,0,0,0,.29A1,1,0,0,0,557.14,85.27Z" transform="translate(0.5 0.5)"/><path class="cls-33" d="M556.86,248.82l.72.56a3.68,3.68,0,0,0,1.8.49,2.79,2.79,0,0,0,1.37-.31,2.57,2.57,0,0,0,1.15-.74,2.66,2.66,0,0,0,.74-1.15,2.79,2.79,0,0,0,.31-1.37c-.05-.31-.09-.63-.13-1a3.58,3.58,0,0,0-.92-1.57l-.72-.56a3.57,3.57,0,0,0-1.8-.48,3.91,3.91,0,0,0-2.52,1,2.72,2.72,0,0,0-.74,1.15,2.79,2.79,0,0,0-.31,1.37c.05.32.09.63.13.95A3.58,3.58,0,0,0,556.86,248.82Z" transform="translate(0.5 0.5)"/><path class="cls-33" d="M567.78,242.15c5.87-5.88,9.26-13.3,11-21.41a65.77,65.77,0,0,0,1.44-12c.08-3.9.08-8.21-1.87-11.71a1.12,1.12,0,0,0-2,.27c-.65,3.64-.06,7.39-.16,11.07a52,52,0,0,1-1.52,11.24c-1.85,7.36-5.11,14.47-8.57,21.2A1.12,1.12,0,0,0,567.78,242.15Z" transform="translate(0.5 0.5)"/><path class="cls-4" d="M576.08,187h0c0,.2,0,.4,0,.6a11.22,11.22,0,0,1,0,1.16c0,.19,0,.37,0,.56v0s0,0,0,0,0,.24-.07.36a1.13,1.13,0,0,0,2.18.6,11.7,11.7,0,0,0,.49-2.69,8.15,8.15,0,0,0,0-1.21,3,3,0,0,0-.18-.89,3,3,0,0,0-.34-.79,1.2,1.2,0,0,0-1.16-.55,1.15,1.15,0,0,0-1,.83,4.69,4.69,0,0,0,0,1.4C576,186.64,576.05,186.82,576.08,187Z" transform="translate(0.5 0.5)"/></g></g></g></svg>